<?xml version="1.0" standalone="no"?>
<!DOCTYPE svg PUBLIC "-//W3C//DTD SVG 20010904//EN"
 "http://www.w3.org/TR/2001/REC-SVG-20010904/DTD/svg10.dtd">
<svg version="1.0" xmlns="http://www.w3.org/2000/svg"
 width="420.000000pt" height="420.000000pt" viewBox="0 0 420.000000 420.000000"
 preserveAspectRatio="xMidYMid meet">
<metadata>
Created by potrace 1.14, written by Peter Selinger 2001-2017
</metadata>
<g transform="translate(0.000000,420.000000) scale(0.100000,-0.100000)"
fill="#000000" stroke="none">
<path d="M1809 4165 c-1 -5 -1 -13 -1 -16 1 -4 -7 -14 -16 -22 -61 -57 -84
-77 -90 -78 -79 -9 -119 -19 -169 -41 -26 -12 -53 -28 -60 -37 -8 -11 -12 -12
-13 -4 0 7 18 32 39 54 47 51 55 81 29 114 -25 32 -42 31 -116 -6 -83 -41
-155 -108 -188 -174 -26 -54 -44 -70 -44 -40 0 16 -12 18 -47 9 -13 -4 -23
-14 -23 -24 0 -24 -19 -38 -59 -42 -19 -2 -36 -9 -39 -16 -3 -11 -1 -11 16 -1
12 7 25 10 29 6 4 -5 1 -12 -6 -16 -11 -7 -11 -9 0 -13 10 -3 6 -9 -10 -17
-21 -12 -23 -11 -18 2 4 11 0 13 -14 10 -10 -3 -17 -9 -14 -13 3 -4 -3 -14
-12 -21 -15 -12 -16 -12 -11 8 4 17 2 20 -11 16 -9 -3 -5 4 9 16 33 27 17 27
-20 -1 -35 -25 -38 -38 -10 -38 25 0 25 -17 1 -53 -18 -27 -19 -28 -32 -10
-38 51 -113 49 -116 -3 -3 -52 -12 -115 -22 -150 -6 -21 -6 -32 0 -29 5 4 9 2
9 -4 0 -5 -7 -14 -15 -18 -8 -5 -17 -23 -18 -39 -2 -17 -7 -36 -11 -42 -5 -8
-1 -10 11 -5 14 5 16 4 7 -8 -35 -45 -16 -43 31 5 64 64 163 125 255 157 87
30 231 33 306 5 72 -27 138 -77 168 -129 32 -53 52 -145 40 -184 -6 -23 -9
-15 -15 47 -16 167 -118 258 -303 268 -65 3 -109 0 -155 -12 -72 -18 -206 -85
-206 -103 0 -6 -4 -15 -9 -20 -5 -5 -6 -3 -2 5 4 6 3 12 -2 12 -19 0 -131
-129 -172 -198 -23 -40 -45 -70 -48 -68 -8 9 8 57 17 51 8 -4 21 16 21 32 0
12 -32 -22 -46 -49 -13 -25 -13 -31 -1 -43 8 -8 17 -11 21 -8 3 4 6 -19 6 -49
0 -220 189 -348 433 -294 173 39 334 166 398 314 11 24 25 52 33 63 13 19 14
19 18 -5 3 -14 1 -23 -3 -20 -5 3 -9 -9 -9 -26 0 -21 -4 -29 -12 -24 -6 4 -8
3 -5 -3 4 -6 0 -16 -8 -23 -7 -6 -12 -17 -9 -24 5 -14 -129 -162 -148 -163 -7
0 -39 -16 -71 -36 -56 -34 -57 -36 -36 -47 12 -7 19 -8 16 -2 -4 5 6 15 21 21
18 9 28 9 30 2 2 -6 8 -11 14 -11 7 0 6 5 -1 14 -15 17 0 29 25 19 12 -5 16
-2 13 8 -3 8 15 33 43 58 27 25 46 37 42 28 -3 -9 -9 -17 -13 -17 -4 0 -6 -12
-5 -27 1 -21 6 -27 20 -25 10 2 25 4 32 4 6 1 12 8 13 17 0 12 2 12 6 3 4 -10
9 -8 20 7 8 12 11 26 7 33 -4 7 -3 8 4 4 7 -4 12 -14 12 -22 0 -8 4 -14 9 -14
5 0 7 10 4 23 -5 21 -5 21 9 3 14 -18 15 -18 23 5 4 13 8 27 10 32 1 4 3 12 4
18 0 5 6 7 11 4 6 -3 10 1 10 11 0 14 2 15 17 3 15 -12 16 -12 10 4 -4 10 -7
30 -7 44 0 20 -3 23 -13 15 -10 -8 -13 -6 -13 9 0 13 6 19 18 17 9 -2 23 5 31
15 12 18 39 23 82 15 15 -2 19 2 17 17 -3 19 -3 19 11 1 13 -18 14 -18 20 -1
4 10 13 15 22 11 8 -3 15 -1 15 5 0 6 8 8 19 4 12 -3 21 0 25 10 3 9 11 13 17
10 6 -4 13 3 16 15 3 11 11 19 17 17 6 -3 22 19 36 47 39 81 142 177 241 224
111 53 174 67 294 66 183 -3 327 -81 395 -214 27 -52 44 -140 30 -154 -7 -7
-10 2 -10 25 0 128 -117 262 -270 310 -82 25 -222 27 -312 4 -149 -39 -293
-146 -349 -261 -29 -59 -31 -70 -27 -142 6 -98 51 -205 111 -258 106 -96 300
-135 462 -92 184 47 356 208 380 355 3 23 13 44 22 47 11 5 13 2 8 -11 -4 -10
-12 -31 -17 -48 -27 -79 -64 -143 -115 -196 -67 -71 -59 -78 12 -11 34 32 40
36 20 12 -17 -19 -41 -45 -55 -57 -23 -20 -24 -22 -6 -29 11 -4 21 -2 26 6 5
8 10 8 14 2 3 -6 0 -13 -6 -15 -7 -3 -3 -6 10 -6 25 -1 30 -16 7 -25 -8 -3
-21 2 -30 10 -14 14 -31 21 -59 23 -5 1 -3 8 4 16 18 22 -1 18 -30 -6 l-25
-20 24 6 c17 5 22 4 16 -5 -5 -8 -4 -11 3 -7 14 9 43 -3 36 -15 -4 -5 -10 -5
-17 0 -7 5 -24 8 -40 6 -15 -1 -25 1 -22 7 9 13 0 11 -50 -13 -30 -15 -41 -25
-32 -30 17 -11 29 -10 22 2 -4 6 1 7 11 3 11 -4 15 -2 11 4 -9 14 12 22 43 17
14 -2 68 -8 120 -15 52 -6 113 -17 135 -24 22 -7 63 -12 90 -10 28 3 44 2 37
-1 -10 -5 -9 -9 5 -20 17 -12 16 -13 -7 -14 l-24 0 24 -17 c14 -9 26 -17 28
-19 2 -1 -2 -13 -9 -26 -12 -22 -11 -22 6 -8 17 13 18 13 13 -1 -4 -10 5 -29
24 -50 20 -23 27 -27 23 -14 -4 11 -20 58 -36 105 -46 133 -107 340 -100 340
3 0 28 -68 54 -150 27 -83 53 -148 58 -145 5 4 6 -1 3 -9 -6 -16 27 -127 53
-181 9 -16 32 -50 53 -75 37 -45 65 -110 57 -133 -2 -6 5 -28 15 -48 16 -31
26 -38 61 -44 36 -6 39 -8 21 -15 -12 -5 -38 -7 -58 -6 -35 3 -36 3 -20 -15
10 -11 24 -19 33 -19 14 0 14 -2 1 -9 -8 -6 -17 -8 -21 -5 -4 2 -10 0 -14 -6
-8 -13 15 -56 24 -44 8 12 62 36 68 30 2 -2 -5 -7 -16 -11 -14 -4 -21 -15 -21
-31 0 -16 -6 -24 -17 -25 -15 0 -15 -2 2 -8 11 -5 23 -7 27 -4 4 2 5 -3 2 -11
-6 -16 -10 -18 -36 -20 -20 -2 -49 -38 -43 -54 3 -7 5 -20 5 -28 0 -9 5 -12
11 -8 7 4 10 -3 9 -17 -6 -68 0 -99 18 -99 19 0 23 -24 8 -48 -10 -16 15 -16
38 1 11 8 18 26 18 43 0 16 5 34 10 41 7 8 0 17 -22 28 -37 19 -35 30 3 16 24
-10 25 -9 17 19 -5 16 -12 35 -16 41 -5 8 -3 9 6 4 10 -6 12 -4 7 8 -3 9 -2
19 3 22 16 10 11 25 -6 18 -14 -5 -15 -3 -4 18 7 13 19 30 27 37 13 14 33 8
33 -9 0 -6 -4 -7 -10 -4 -13 8 -13 -5 0 -25 8 -13 10 -12 10 3 0 22 8 22 33
-1 22 -19 21 -22 2 46 -5 18 -2 22 15 22 12 0 31 -5 43 -12 25 -13 66 -17 73
-7 2 4 -8 10 -24 14 l-27 7 25 11 c14 5 32 9 42 8 9 -1 31 8 50 19 26 17 28
20 8 14 -36 -11 -100 -6 -116 10 -11 12 -6 15 31 21 25 3 49 4 54 1 5 -4 11 0
13 6 6 17 78 -37 78 -58 0 -7 7 -14 15 -14 8 0 15 -7 15 -15 0 -27 16 -16 29
20 14 39 13 41 -50 104 l-36 36 38 40 c27 28 42 55 50 91 9 38 26 68 65 115
62 73 70 109 28 128 -24 11 -30 9 -55 -15 -15 -15 -41 -51 -56 -80 -30 -58
-41 -62 -61 -21 -7 15 -17 27 -23 27 -12 0 -12 -17 1 -25 6 -3 10 -12 10 -18
0 -7 -11 2 -25 19 -14 18 -43 39 -65 48 -36 14 -40 19 -34 41 4 15 -1 44 -11
70 -16 43 -16 47 4 105 12 33 21 65 21 71 0 24 41 97 62 111 13 9 34 39 47 67
23 49 41 65 41 39 1 -7 9 4 19 25 l18 39 6 -54 c8 -67 2 -94 -35 -140 -26 -34
-27 -38 -10 -38 10 0 24 11 30 25 6 14 15 25 20 25 5 0 17 18 27 40 15 34 20
38 34 27 14 -10 14 -10 3 5 -8 9 -14 50 -16 95 -2 43 -9 94 -16 114 -12 33
-11 37 15 65 69 74 95 175 68 274 -24 93 -82 180 -120 180 -19 0 -17 -4 20
-43 47 -51 51 -57 70 -116 21 -67 22 -115 1 -179 -18 -54 -70 -126 -85 -117
-5 4 -9 19 -9 34 0 15 -5 32 -11 38 -9 9 -6 23 10 55 26 55 27 99 2 129 -16
19 -23 22 -38 13 -10 -6 -22 -20 -28 -32 -16 -36 -22 -26 -24 41 -1 41 -9 77
-24 107 -20 40 -26 45 -59 48 -22 2 -38 -1 -38 -7 0 -6 -5 -11 -11 -11 -5 0
-7 6 -3 13 5 8 2 7 -10 -2 -9 -8 -15 -20 -12 -28 3 -8 -4 -15 -19 -19 -14 -3
-25 -12 -25 -20 0 -24 -23 -64 -37 -64 -7 0 -14 -7 -14 -15 -1 -8 -2 -20 -3
-27 0 -7 -19 -17 -41 -23 -32 -8 -40 -14 -37 -30 2 -18 2 -18 -8 -2 -6 9 -19
17 -28 17 -13 0 -14 2 -3 9 10 7 11 9 0 13 -9 3 -5 14 13 41 13 20 28 34 32
30 4 -4 4 1 0 11 -6 15 -4 17 7 11 11 -6 12 -5 2 6 -21 21 -15 34 20 47 37 14
92 60 83 69 -3 3 -14 -1 -23 -10 -10 -8 -32 -21 -48 -27 -26 -10 -36 -8 -72
11 -24 13 -43 29 -43 35 0 12 -93 34 -149 34 -20 0 -31 4 -25 8 21 15 46 84
35 95 -17 17 -13 29 8 22 24 -7 35 9 22 34 -7 12 -31 24 -63 31 -29 7 -89 26
-132 41 -44 16 -81 29 -83 29 -2 0 -3 -10 -3 -22 0 -17 -3 -19 -9 -9 -6 9 -11
10 -15 2 -4 -6 -23 -18 -43 -28 -22 -10 -40 -28 -47 -45 -6 -15 -13 -28 -17
-28 -4 0 -10 -16 -13 -35 -7 -34 -8 -35 -51 -35 -47 0 -60 14 -24 25 26 9 6
25 -21 18 -14 -4 -20 3 -25 25 -9 41 -43 73 -115 110 -47 23 -60 26 -60 15 0
-11 -5 -13 -17 -8 -41 17 -97 25 -106 16 -9 -9 1 -14 60 -26 55 -11 108 -98
73 -120 -6 -3 -7 1 -4 10 5 11 2 14 -12 9 -28 -10 -44 -25 -38 -35 3 -5 0 -9
-6 -9 -7 0 -10 7 -6 15 3 9 -3 19 -15 25 -10 6 -19 7 -18 3 4 -22 -3 -24 -26
-9 -18 12 -30 14 -44 7 -15 -8 -20 -5 -31 17 -7 15 -12 48 -11 74 2 41 -1 49
-24 64 -37 24 -83 20 -200 -21 -88 -30 -101 -32 -119 -19 -19 13 -23 11 -43
-13 -13 -14 -26 -23 -30 -20 -3 4 1 15 10 25 40 44 6 98 -44 72 -17 -10 -23
-9 -30 1 -5 8 -9 10 -10 4z m455 -51 c20 -19 20 -26 2 -69 -16 -38 -32 -48
-23 -15 4 16 2 18 -13 10 -13 -7 -21 -7 -25 1 -20 32 -116 44 -144 18 -26 -24
-34 -24 -19 0 12 19 123 58 200 70 4 1 14 -6 22 -15z m-450 -78 c-3 -9 -13
-16 -22 -16 -13 0 -12 3 3 20 20 23 29 21 19 -4z m30 0 c-3 -9 -10 -16 -15
-16 -6 0 -5 9 1 21 13 24 24 20 14 -5z m756 9 c31 -16 50 -43 50 -71 0 -15 -2
-15 -18 -3 -10 8 -7 3 7 -9 20 -19 22 -25 10 -33 -8 -5 -16 -9 -19 -10 -15 -2
-38 -8 -62 -14 -18 -5 -28 -3 -28 4 0 6 4 11 9 11 8 0 9 34 3 107 -1 12 -10
24 -19 26 -11 3 -7 5 10 6 15 0 41 -6 57 -14z m-420 -35 c0 -5 -2 -10 -4 -10
-3 0 -8 5 -11 10 -3 6 -1 10 4 10 6 0 11 -4 11 -10z m115 -20 c3 -5 1 -10 -4
-10 -6 0 -11 5 -11 10 0 6 2 10 4 10 3 0 8 -4 11 -10z m-121 -30 c-7 -7 -19
-7 -35 -1 -23 9 -22 10 11 10 23 1 31 -2 24 -9z m-796 -26 c-9 -9 -21 -13 -28
-9 -14 9 5 25 30 25 12 0 12 -3 -2 -16z m1132 -4 c0 -5 -4 -10 -10 -10 -5 0
-10 5 -10 10 0 6 5 10 10 10 6 0 10 -4 10 -10z m500 -5 c0 -17 -2 -18 -24 -9
-23 9 -20 24 4 24 11 0 20 -7 20 -15z m-1690 1 c0 -2 -7 -6 -15 -10 -8 -3 -15
-1 -15 4 0 6 7 10 15 10 8 0 15 -2 15 -4z m1755 -44 c-19 -4 -45 15 -45 35 0
10 8 7 31 -9 24 -18 27 -24 14 -26z m-1905 10 c0 -21 -18 -42 -37 -42 -18 0
-16 20 4 42 21 23 33 23 33 0z m1959 -38 c13 -12 -8 -10 -29 2 l-25 15 25 -7
c14 -3 27 -8 29 -10z m-1999 -33 c0 -5 -9 -11 -20 -14 -13 -3 -20 0 -20 9 0 8
9 14 20 14 11 0 20 -4 20 -9z m1608 -15 c-7 -8 -17 -12 -22 -9 -4 3 -2 9 5 14
22 13 31 11 17 -5z m502 -10 c0 -11 -19 -15 -25 -6 -3 5 1 10 9 10 9 0 16 -2
16 -4z m-560 -26 c0 -5 -4 -10 -10 -10 -5 0 -10 5 -10 10 0 6 5 10 10 10 6 0
10 -4 10 -10z m-1645 -40 c-28 -12 -37 -12 -30 0 3 6 16 10 28 9 21 0 21 -1 2
-9z m2783 -163 c3 -41 -23 -117 -39 -117 -23 0 -21 128 3 157 17 21 33 4 36
-40z m-338 -57 c0 -5 -5 -10 -11 -10 -5 0 -7 5 -4 10 3 6 8 10 11 10 2 0 4 -4
4 -10z m-1644 -95 c9 -8 24 -15 33 -15 24 0 38 -17 46 -55 l6 -30 -15 32 c-23
51 -89 74 -190 68 -55 -4 -75 -2 -61 4 34 16 164 13 181 -4z m-226 -45 c-6
-12 -8 -30 -4 -42 4 -14 2 -18 -5 -14 -24 15 -12 67 17 75 1 1 -2 -8 -8 -19z
m-400 -29 c-25 -4 -51 -10 -57 -14 -18 -12 -16 -27 4 -27 24 0 100 -47 107
-66 3 -9 1 -23 -5 -30 -6 -7 -8 -18 -4 -24 11 -18 -32 -47 -93 -65 -31 -9 -67
-21 -79 -25 -25 -10 -37 1 -47 42 -3 15 -12 33 -20 40 -19 19 -6 46 45 92 24
22 39 41 32 43 -16 6 -72 -23 -107 -56 -24 -22 -27 -23 -18 -5 15 28 74 72
120 89 20 7 66 13 102 13 60 -1 62 -1 20 -7z m1176 -47 c19 -9 33 -19 30 -21
-2 -2 -18 3 -35 11 -34 18 -109 21 -163 5 -50 -13 -48 -25 5 -25 46 0 65 -4
84 -19 7 -5 18 -15 25 -21 24 -19 50 -24 64 -13 10 8 14 8 14 0 0 -6 5 -11 10
-11 7 0 7 6 1 18 -12 23 1 49 16 30 43 -56 0 -148 -101 -217 -72 -49 -220 -69
-262 -35 -19 15 -19 16 1 9 53 -17 133 -17 166 1 19 10 38 17 42 16 4 -1 7 6
5 15 -2 13 6 19 32 24 19 4 29 7 23 8 -7 0 -13 6 -13 12 0 5 5 7 12 3 7 -5 8
-3 3 5 -5 9 -11 9 -17 3 -6 -6 -16 -8 -23 -6 -7 3 -23 -9 -35 -26 -14 -19 -25
-28 -29 -21 -5 7 -18 8 -41 1 -43 -12 -53 -13 -46 -1 4 5 -9 8 -29 7 -25 -2
-35 1 -35 11 0 8 -9 17 -20 20 -11 3 -23 17 -26 30 -5 17 -9 21 -14 13 -9 -14
-2 -67 11 -92 7 -13 6 -16 -5 -12 -8 3 -19 18 -26 33 -48 116 138 282 298 266
24 -3 59 -12 78 -21z m-455 -11 c-8 -15 -10 -15 -11 -2 0 17 10 32 18 25 2 -3
-1 -13 -7 -23z m-348 -28 c-9 -19 -21 -35 -26 -35 -5 0 -7 3 -5 8 3 4 11 21
18 39 8 17 17 30 22 27 4 -3 0 -20 -9 -39z m-213 -65 c-15 -37 -85 -102 -139
-129 -22 -12 -69 -23 -103 -26 l-63 -5 63 14 c79 19 136 51 190 110 33 36 42
53 43 83 1 38 1 38 11 10 7 -20 7 -36 -2 -57z m2411 -21 c-10 -23 -10 -23 -10
7 -1 17 2 34 7 38 11 12 14 -18 3 -45z m-2207 4 c-5 -19 -2 -30 10 -39 10 -6
13 -15 8 -18 -6 -3 -13 2 -16 11 -6 15 -8 15 -16 3 -7 -12 -10 -9 -10 12 0 33
9 58 21 58 5 0 6 -12 3 -27z m1406 -13 c0 -11 -4 -20 -9 -20 -5 0 -7 9 -4 20
3 11 7 20 9 20 2 0 4 -9 4 -20z m-1450 -50 c0 -5 -5 -10 -11 -10 -5 0 -7 5 -4
10 3 6 8 10 11 10 2 0 4 -4 4 -10z m2184 -19 c3 -5 -1 -14 -9 -21 -13 -10 -15
-9 -15 9 0 21 14 28 24 12z m-2659 -52 c15 -15 -28 -10 -55 6 -25 14 -25 14
10 8 19 -3 39 -10 45 -14z m453 -29 c-7 -10 -14 -17 -17 -15 -4 4 18 35 25 35
2 0 -1 -9 -8 -20z m1510 -137 c-27 -7 -21 -23 8 -23 21 0 24 -3 15 -13 -6 -8
-8 -16 -5 -19 2 -3 -2 -8 -11 -12 -11 -4 -15 -2 -12 6 5 15 -32 50 -44 42 -5
-3 -6 2 -3 10 4 10 18 16 38 15 17 -1 23 -3 14 -6z m-98 -43 c0 -5 -2 -10 -4
-10 -3 0 -8 5 -11 10 -3 6 -1 10 4 10 6 0 11 -4 11 -10z m250 -130 c0 -5 -2
-10 -4 -10 -3 0 -8 5 -11 10 -3 6 -1 10 4 10 6 0 11 -4 11 -10z m730 -73 c0
-8 -9 -22 -20 -32 -23 -21 -25 -16 -8 20 12 27 28 34 28 12z m-547 -144 c-3
-7 -6 -13 -8 -13 -2 0 -5 6 -8 13 -3 8 1 14 8 14 7 0 11 -6 8 -14z m21 -82 c4
-5 0 -11 -6 -14 -10 -4 -11 -7 0 -18 19 -20 14 -31 -7 -17 -14 9 -17 16 -11
29 5 9 6 19 3 23 -3 3 -1 6 5 6 6 0 13 -4 16 -9z m431 -175 c17 -13 27 -27 23
-31 -4 -4 -21 7 -38 24 -37 37 -28 41 15 7z m-275 -16 c8 -5 12 -12 9 -15 -8
-8 -39 5 -39 16 0 11 11 11 30 -1z"/>
<path d="M2210 4080 c0 -5 5 -10 11 -10 5 0 7 5 4 10 -3 6 -8 10 -11 10 -2 0
-4 -4 -4 -10z"/>
<path d="M2080 3210 c0 -5 5 -10 10 -10 6 0 10 5 10 10 0 6 -4 10 -10 10 -5 0
-10 -4 -10 -10z"/>
<path d="M2381 3156 c-7 -9 -17 -13 -22 -10 -5 3 -9 -1 -9 -9 0 -24 29 -28 40
-6 15 27 8 46 -9 25z"/>
<path d="M3355 3820 c3 -5 8 -10 11 -10 2 0 4 5 4 10 0 6 -5 10 -11 10 -5 0
-7 -4 -4 -10z"/>
<path d="M891 3774 c0 -11 3 -14 6 -6 3 7 2 16 -1 19 -3 4 -6 -2 -5 -13z"/>
<path d="M910 3759 c0 -5 5 -7 10 -4 6 3 10 8 10 11 0 2 -4 4 -10 4 -5 0 -10
-5 -10 -11z"/>
<path d="M445 3358 c-56 -29 -75 -47 -96 -93 -51 -111 2 -250 118 -306 63 -31
153 -33 189 -4 23 18 24 22 11 40 -13 16 -17 17 -30 6 -16 -13 -37 -8 -37 10
0 5 6 9 14 9 8 0 18 5 22 12 4 6 3 8 -2 5 -6 -3 -16 -2 -24 3 -12 7 -11 12 4
29 10 11 15 25 11 30 -3 6 0 11 7 11 9 0 9 3 -2 10 -22 14 -25 13 -38 -22 -6
-17 -14 -29 -18 -26 -3 4 -1 15 5 26 6 12 11 29 11 38 0 10 7 26 17 36 16 18
8 24 -15 10 -18 -12 -54 -122 -49 -149 3 -17 0 -23 -12 -23 -10 0 -22 -5 -28
-11 -8 -8 -26 3 -66 42 -47 46 -56 61 -62 102 -5 31 -3 65 5 90 13 47 47 90
63 80 6 -3 7 -1 4 4 -6 10 27 38 63 55 11 5 10 7 -5 7 -11 0 -38 -9 -60 -21z"/>
<path d="M1912 3221 c-10 -6 -10 -14 -1 -37 12 -27 13 -28 16 -6 6 34 0 53
-15 43z"/>
<path d="M615 3150 c3 -5 8 -10 11 -10 2 0 4 5 4 10 0 6 -5 10 -11 10 -5 0 -7
-4 -4 -10z"/>
<path d="M1469 3073 c-13 -16 -12 -17 4 -4 9 7 17 15 17 17 0 8 -8 3 -21 -13z"/>
<path d="M1656 3075 c4 -8 8 -15 10 -15 2 0 4 7 4 15 0 8 -4 15 -10 15 -5 0
-7 -7 -4 -15z"/>
<path d="M3880 3031 c0 -25 6 -27 13 -6 4 8 2 17 -3 20 -6 4 -10 -3 -10 -14z"/>
<path d="M1395 2988 l-50 -53 53 50 c48 46 57 55 49 55 -1 0 -25 -24 -52 -52z"/>
<path d="M725 2911 c22 -23 49 -47 60 -53 11 -6 18 -9 15 -6 -3 2 -30 26 -60
53 -54 49 -54 49 -15 6z"/>
<path d="M1386 2931 c-12 -13 -14 -21 -6 -26 5 -3 7 -12 3 -18 -4 -7 1 -6 11
2 9 8 15 20 12 28 -3 7 -1 13 4 13 6 0 10 5 10 10 0 16 -15 12 -34 -9z"/>
<path d="M646 2909 c8 -14 65 -41 72 -34 3 3 -4 8 -16 12 -12 3 -22 9 -22 13
0 4 -9 10 -20 13 -11 3 -17 1 -14 -4z"/>
<path d="M1178 2847 c-16 -6 -28 -14 -28 -19 0 -4 -7 -5 -15 -2 -8 4 -15 1
-15 -4 0 -6 -15 -9 -37 -6 -37 4 -37 4 -8 -6 17 -6 40 -8 52 -5 12 3 24 1 28
-4 11 -19 44 -8 42 14 -2 16 3 19 22 17 20 -2 22 0 11 13 -14 17 -15 17 -52 2z
m2 -37 c0 -5 -4 -10 -10 -10 -5 0 -10 5 -10 10 0 6 5 10 10 10 6 0 10 -4 10
-10z"/>
<path d="M898 2813 c7 -3 16 -2 19 1 4 3 -2 6 -13 5 -11 0 -14 -3 -6 -6z"/>
<path d="M2158 2813 c6 -2 9 -10 6 -15 -4 -6 -2 -8 4 -4 15 9 65 -12 57 -24
-3 -5 1 -10 10 -10 9 0 13 5 10 10 -3 6 0 10 9 10 8 0 16 -4 18 -9 2 -6 17 -6
38 -1 l35 8 -40 3 c-65 4 -68 5 -109 22 -21 9 -41 17 -45 16 -3 0 0 -3 7 -6z"/>
<path d="M1020 2800 c0 -5 12 -10 28 -9 24 0 25 1 7 9 -27 12 -35 12 -35 0z"/>
<path d="M2546 2803 c-14 -4 -16 -7 -6 -13 9 -6 1 -11 -26 -15 -81 -14 -102
-23 -44 -19 35 2 57 -1 63 -9 6 -8 7 -7 4 4 -4 12 4 19 28 26 19 6 37 7 42 2
5 -5 16 -4 26 3 16 12 15 13 -5 13 -13 1 -32 4 -43 7 -11 3 -29 3 -39 1z"/>
<path d="M1121 2786 c-9 -11 -6 -13 14 -13 20 0 23 2 14 13 -6 8 -13 14 -14
14 -1 0 -8 -6 -14 -14z"/>
<path d="M2858 2773 c7 -3 16 -2 19 1 4 3 -2 6 -13 5 -11 0 -14 -3 -6 -6z"/>
<path d="M2347 2763 c-9 -2 -15 -9 -12 -14 6 -8 -10 -13 -42 -12 -6 0 -9 -6
-6 -14 4 -10 14 -13 32 -9 25 6 25 6 7 -9 -11 -8 -25 -15 -30 -16 -6 0 10 -9
36 -19 26 -11 54 -17 63 -14 25 10 17 -4 -12 -20 -20 -11 -23 -15 -11 -16 12
0 15 -5 11 -17 -4 -11 -3 -14 6 -9 7 5 10 14 8 21 -6 15 60 38 69 24 3 -5 -3
-9 -13 -10 -10 0 4 -6 31 -13 26 -8 56 -12 65 -11 9 1 10 0 4 -2 -23 -8 -14
-23 17 -29 17 -4 27 -11 23 -17 -3 -6 -1 -7 6 -3 11 7 24 3 101 -32 25 -11 25
-11 -4 -7 -18 3 -26 1 -20 -5 5 -5 21 -11 34 -12 32 -4 66 -64 48 -85 -6 -8
-7 -13 -2 -12 19 5 64 -21 64 -36 0 -10 5 -13 12 -9 7 4 8 3 4 -5 -4 -6 0 -18
9 -27 41 -42 -20 -19 -85 32 -19 14 -27 24 -17 20 47 -17 49 -16 18 5 -24 16
-36 19 -39 11 -2 -7 -13 -12 -25 -12 -18 0 -19 2 -7 11 10 7 11 9 2 7 -21 -6
-19 -22 3 -26 11 -2 25 -9 30 -14 7 -8 6 -9 -1 -5 -7 4 -18 -1 -25 -10 -12
-15 -12 -16 4 -10 11 4 17 2 17 -8 0 -8 4 -15 9 -15 15 0 23 -32 11 -44 -8 -8
-9 -6 -5 7 4 9 3 17 -2 17 -10 0 -43 24 -74 55 -11 10 -38 16 -82 18 -36 1
-63 5 -61 9 11 18 -24 12 -45 -8 -17 -16 -28 -20 -32 -12 -4 6 -12 7 -20 2
-11 -6 -11 -3 1 12 8 10 -1 6 -19 -11 -30 -27 -32 -28 -21 -6 8 15 8 21 1 17
-6 -4 -11 0 -12 11 0 11 -3 13 -6 5 -2 -6 -10 -9 -15 -6 -6 4 -8 2 -4 -4 3 -6
-8 -21 -26 -33 -18 -13 -28 -17 -22 -9 8 11 8 21 -1 37 -6 13 -14 20 -18 17
-3 -3 -3 4 0 15 4 17 2 20 -11 15 -9 -3 -16 -1 -16 5 0 6 4 11 9 11 5 0 11 7
15 15 5 13 2 13 -19 -1 -14 -9 -25 -13 -25 -10 0 4 -12 -1 -27 -11 -24 -15
-26 -15 -15 -1 22 28 -9 29 -39 1 -24 -22 -28 -23 -41 -9 -9 8 -18 12 -22 9
-3 -3 2 -12 11 -19 12 -8 17 -23 15 -48 -3 -26 1 -38 12 -42 13 -5 14 -9 5
-20 -6 -8 -17 -14 -23 -14 -7 0 -7 3 2 8 9 6 6 14 -13 30 -26 23 -37 55 -12
33 10 -8 14 -7 14 5 0 9 -8 14 -21 12 -12 -2 -25 2 -31 9 -7 8 -15 9 -25 3
-12 -7 -12 -12 4 -29 10 -11 23 -18 28 -15 11 7 37 -24 38 -44 0 -7 -5 -10
-10 -7 -7 4 -8 -3 -4 -21 5 -19 4 -25 -5 -20 -6 4 -11 14 -11 22 0 8 -4 14
-10 14 -10 0 -3 -27 11 -46 5 -6 6 -14 2 -18 -4 -4 0 -4 10 0 16 6 21 17 18
37 0 4 6 7 15 7 13 0 12 -4 -4 -27 l-20 -28 24 -17 c12 -10 28 -18 33 -18 6 0
11 -4 11 -10 0 -5 4 -10 9 -10 6 0 22 -11 37 -25 15 -14 23 -25 18 -25 -5 0
-4 -4 2 -8 26 -17 82 -101 71 -106 -9 -3 -9 -5 1 -5 6 -1 21 -10 32 -21 21
-21 27 -35 10 -25 -5 3 -3 -7 4 -22 8 -15 19 -39 25 -53 6 -14 15 -32 20 -40
16 -28 45 -95 43 -102 -1 -4 13 -43 32 -87 22 -52 30 -81 22 -84 -6 -3 -12 6
-12 20 -2 22 -31 55 -44 49 -3 -1 -27 19 -54 46 -27 26 -44 48 -38 48 19 0 -1
36 -35 65 -18 15 -33 24 -33 20 0 -4 -7 -2 -15 5 -10 9 -15 9 -15 1 0 -9 9
-14 30 -13 3 0 18 -13 33 -28 25 -23 27 -28 12 -33 -9 -4 -14 -3 -11 2 3 5 -1
14 -9 21 -8 7 -15 9 -15 5 0 -4 -7 -2 -15 5 -8 6 -19 9 -25 5 -10 -6 -14 6
-11 38 2 10 -5 17 -15 17 -14 0 -15 -2 -3 -17 13 -15 12 -15 -8 -5 -26 14 -33
15 -33 3 0 -5 8 -11 18 -15 24 -8 104 -74 139 -116 30 -35 80 -150 65 -150 -4
0 2 -7 12 -15 20 -15 20 -15 0 -15 -15 0 -16 -2 -5 -9 8 -5 10 -14 6 -21 -5
-8 -4 -11 3 -6 6 4 18 -9 28 -31 10 -21 24 -45 31 -54 8 -9 13 -20 12 -25 -1
-5 3 -22 9 -37 7 -16 12 -37 12 -48 0 -11 5 -30 11 -41 8 -15 8 -19 0 -14 -14
9 -14 -10 0 -36 10 -18 9 -20 -5 -15 -11 5 -16 1 -16 -12 0 -11 6 -22 13 -24
7 -3 5 -6 -5 -6 -23 -1 -23 -1 5 -48 12 -23 28 -38 35 -35 12 4 79 -36 110
-66 35 -33 71 -36 40 -3 -11 11 -10 13 2 9 8 -3 15 -15 15 -27 0 -13 8 -27 18
-32 9 -6 22 -20 28 -32 8 -16 1 -12 -27 14 -54 49 -110 89 -126 89 -9 0 -9 -3
2 -10 12 -8 11 -10 -7 -10 -12 0 -25 4 -28 10 -3 5 -1 10 4 10 18 0 12 14 -10
28 -30 19 -33 10 -13 -34 9 -22 16 -43 15 -47 -1 -5 3 -6 9 -2 5 3 20 -1 32
-10 23 -15 23 -16 -11 -13 -20 1 -35 9 -38 18 -2 8 -9 23 -15 34 -5 10 -11 26
-13 36 -4 22 -35 70 -44 70 -4 0 -7 -10 -8 -22 -1 -12 -9 -28 -17 -37 -14 -14
-13 -18 12 -45 15 -17 18 -24 7 -16 -11 8 -23 19 -27 24 -3 5 -13 2 -22 -6 -8
-9 -12 -19 -8 -23 4 -5 1 -5 -5 -1 -16 9 -17 36 -2 36 6 0 8 9 4 21 -5 16 -3
20 11 17 10 -2 19 2 20 7 0 6 4 18 7 28 4 9 9 24 12 33 7 20 -62 107 -77 98
-7 -5 -8 -2 -3 6 4 7 2 16 -6 21 -9 5 -10 9 -2 9 6 0 32 -24 59 -53 40 -44 44
-47 30 -19 -10 19 -15 36 -12 40 3 3 1 11 -6 19 -8 11 -7 17 8 27 10 8 15 18
11 22 -4 5 -12 2 -16 -5 -7 -11 -11 -10 -19 5 -5 11 -7 25 -5 32 3 6 -1 12 -7
12 -7 0 -10 7 -7 14 4 10 1 13 -9 9 -7 -3 -14 -9 -14 -14 0 -5 -5 -9 -12 -9
-9 0 -9 3 0 12 9 9 8 16 -5 30 -10 12 -12 18 -4 18 7 0 9 5 5 11 -4 8 -9 7
-14 -2 -6 -9 -12 -9 -25 4 -15 15 -15 18 -1 23 21 8 20 24 -1 24 -12 1 -7 6
12 15 l30 13 -32 -2 c-18 -2 -33 1 -33 5 0 5 5 9 10 9 6 0 5 6 -2 14 -7 8 -17
12 -21 9 -5 -3 -22 4 -38 16 -30 23 -44 27 -34 11 4 -6 -1 -7 -11 -3 -12 4
-15 3 -10 -5 4 -7 2 -10 -7 -6 -8 3 -20 -2 -27 -11 -11 -13 -9 -15 9 -15 12 0
19 -4 16 -10 -3 -5 -2 -10 4 -10 5 0 11 5 13 11 2 5 11 7 21 4 9 -4 14 -11 11
-16 -7 -13 -51 -11 -60 2 -4 8 -9 7 -15 -2 -7 -11 -9 -11 -9 3 0 10 -7 15 -17
13 -10 -1 -12 0 -5 2 13 5 16 19 5 25 -5 2 -18 17 -30 34 l-21 31 21 -3 c12
-1 24 -3 27 -3 3 -1 -2 -6 -10 -11 -10 -6 -11 -10 -3 -10 7 0 12 -6 10 -12 -2
-15 30 -18 57 -5 13 7 15 11 6 17 -6 4 -11 11 -10 16 1 5 -3 10 -10 12 -6 2
-9 -2 -8 -8 2 -7 -3 -15 -11 -18 -10 -3 -12 0 -8 12 4 9 3 15 -1 12 -4 -3 -14
4 -21 16 -7 11 -8 17 -3 14 6 -3 12 1 15 9 4 8 -2 16 -14 20 -10 4 -17 11 -14
16 4 5 -1 9 -9 9 -18 0 -30 -16 -16 -23 6 -3 5 -4 -2 -3 -7 1 -13 10 -13 19 0
9 -9 23 -20 32 -19 16 -19 16 3 5 26 -13 45 -4 23 9 -8 5 -10 14 -6 21 4 7 2
16 -5 20 -7 4 -9 13 -6 19 11 18 26 13 26 -9 0 -11 5 -20 10 -20 6 0 10 5 10
11 0 6 7 3 17 -6 9 -10 26 -15 40 -12 29 5 30 -9 1 -19 -13 -4 -24 -2 -26 4
-2 6 -10 8 -19 5 -12 -5 -14 -3 -8 7 5 9 4 11 -3 6 -9 -5 -9 -12 0 -25 11 -18
51 -18 74 1 12 9 44 1 44 -12 0 -4 -7 -11 -16 -14 -22 -8 -26 -8 -20 3 4 5 -4
7 -16 3 -21 -5 -21 -6 -2 -13 10 -4 15 -8 9 -9 -18 -2 39 -29 60 -29 11 1 5 5
-15 11 -33 9 -34 11 -15 24 10 8 25 14 32 14 21 0 15 18 -9 26 -12 3 -29 13
-37 21 -7 8 -22 12 -32 10 -11 -3 -22 0 -26 5 -3 6 -1 8 4 5 6 -4 16 0 22 7
10 12 9 13 -7 9 -25 -6 -38 13 -22 32 7 8 9 15 5 15 -4 0 -1 7 6 17 8 9 -4 5
-28 -10 -24 -15 -43 -23 -43 -17 0 5 4 10 8 10 5 0 14 11 20 24 10 22 8 24
-23 28 -18 2 -33 1 -32 -2 2 -9 -27 -50 -36 -50 -5 0 -5 10 -1 22 6 21 6 21
-10 5 -23 -23 -27 -21 -16 7 7 19 5 26 -8 31 -14 5 -14 7 -2 15 10 7 11 10 3
10 -20 0 -15 19 12 46 22 22 23 25 7 31 -9 4 -20 11 -24 17 -4 6 -13 5 -24 -5
-11 -9 -15 -9 -10 -1 4 7 2 12 -7 12 -11 0 -13 7 -9 22 4 16 2 19 -8 13 -10
-6 -12 -1 -7 21 5 27 4 27 -9 9 -12 -16 -18 -14 -16 5 0 3 -11 7 -26 8 -15 1
-28 7 -30 12 -2 6 -8 10 -14 10 -6 0 -6 -6 2 -15 25 -30 -10 -15 -41 18 -17
17 -28 26 -24 20 4 -8 -1 -13 -12 -13 -11 0 -25 6 -33 13 -12 10 -12 9 -2 -5
9 -11 10 -18 2 -23 -5 -3 -13 1 -16 9 -3 9 -11 16 -16 16 -6 0 -8 -7 -4 -15 5
-13 3 -13 -18 0 -13 9 -29 14 -37 12 -8 -2 -11 -2 -6 0 15 9 6 21 -20 26 -16
3 -36 9 -45 12 -13 5 -18 2 -18 -9 0 -9 -6 -13 -13 -10 -8 3 -27 0 -43 -7 -16
-6 -42 -13 -58 -15 -16 -2 -34 -8 -41 -14 -6 -5 -16 -6 -20 -2 -5 4 -5 2 -2
-4 8 -14 -13 -33 -42 -39 -26 -5 -60 -24 -43 -25 6 0 12 -4 12 -10 0 -5 -6 -7
-14 -4 -16 6 -28 -30 -15 -43 5 -5 1 -9 -9 -10 -12 -1 -18 5 -17 20 3 58 35
117 62 117 7 0 13 9 13 21 0 11 3 18 8 16 4 -3 13 1 20 9 15 16 15 16 -15 19
-14 1 -20 -2 -16 -11 3 -9 -2 -14 -16 -14 -12 0 -21 -6 -21 -15 0 -15 -41 -47
-56 -44 -15 4 -44 -13 -44 -25 -1 -24 -37 -55 -59 -49 -12 3 -21 1 -21 -6 0
-6 7 -8 17 -4 11 4 14 3 9 -5 -4 -7 -16 -12 -27 -12 -10 0 -19 -7 -19 -15 0
-8 -5 -14 -12 -12 -7 1 -12 -3 -13 -10 0 -7 -9 -19 -20 -28 -11 -9 -14 -14 -7
-10 6 3 12 1 12 -4 0 -6 -4 -11 -10 -11 -5 0 -10 -4 -10 -10 0 -14 45 5 70 30
11 11 18 25 15 31 -4 5 -3 9 2 8 18 -4 63 21 63 36 0 18 55 21 66 3 5 -7 2 -9
-9 -5 -12 4 -14 2 -10 -10 4 -11 3 -14 -5 -9 -7 4 -24 -2 -38 -13 -15 -12 -23
-21 -18 -22 5 0 0 -4 -11 -9 -18 -8 -17 -9 8 -9 21 -1 27 3 25 15 -2 10 3 19
10 21 8 3 10 -1 5 -13 -5 -13 -3 -15 8 -9 8 5 1 -4 -14 -18 -28 -27 -43 -35
-33 -18 4 5 -3 7 -15 4 -12 -3 -18 -11 -15 -19 3 -8 -1 -14 -11 -14 -13 0 -13
-3 -3 -15 7 -9 10 -18 6 -22 -3 -3 -6 -1 -6 7 0 10 -3 10 -15 0 -8 -6 -19 -9
-24 -6 -21 13 -3 -48 20 -65 18 -14 21 -21 11 -27 -7 -5 -14 -18 -15 -30 0
-11 -4 -19 -8 -16 -4 2 -10 -3 -13 -12 -4 -10 -13 -13 -28 -9 -19 5 -20 4 -8
-5 12 -9 12 -13 2 -17 -10 -4 -10 -8 -1 -19 17 -21 33 -17 70 16 19 16 36 25
37 19 2 -5 -8 -19 -23 -31 -16 -12 -22 -23 -16 -27 7 -4 3 -14 -11 -25 -20
-18 -21 -18 -15 3 3 11 1 19 -4 15 -5 -3 -9 -11 -9 -19 0 -7 -7 -16 -16 -19
-26 -10 -28 -7 -8 15 18 20 18 21 -1 35 -10 8 -22 14 -27 14 -14 0 -9 -20 8
-27 13 -5 12 -8 -5 -25 -12 -10 -21 -24 -20 -31 0 -9 2 -9 6 1 8 20 23 14 23
-9 0 -14 -5 -19 -13 -16 -8 3 -20 1 -28 -4 -11 -7 -11 -9 -1 -9 8 0 11 -7 7
-19 -3 -11 1 -24 11 -31 14 -12 13 -16 -8 -33 -18 -15 -19 -18 -4 -13 16 6 17
4 6 -9 -9 -11 -16 -13 -24 -5 -14 14 -26 12 -26 -5 0 -8 -4 -15 -10 -15 -14 0
-13 2 13 36 12 18 28 29 36 26 12 -4 12 -3 0 11 -13 14 -16 13 -32 -6 -32 -40
-45 -74 -35 -91 6 -10 5 -16 -2 -16 -5 0 -10 -5 -10 -11 0 -6 13 -1 30 11 18
13 27 26 23 35 -3 10 1 15 13 13 40 -3 54 2 54 22 0 11 5 20 10 20 6 0 10 7
10 15 0 9 8 18 17 22 10 3 24 11 31 17 15 11 52 19 52 11 0 -3 -11 -10 -25
-15 -14 -5 -25 -16 -25 -25 0 -8 -6 -14 -12 -13 -7 2 -12 -5 -12 -14 1 -10 -2
-16 -6 -13 -5 3 -11 1 -15 -5 -3 -5 1 -10 10 -10 13 0 14 -4 4 -22 -12 -22
-12 -22 -20 -3 -7 20 -8 18 -13 -23 0 -7 -8 -17 -16 -22 -8 -5 -10 -10 -5 -10
6 0 4 -4 -4 -9 -7 -5 -10 -14 -6 -21 6 -9 9 -9 16 1 6 11 9 10 14 -3 6 -14 10
-15 26 -5 10 6 19 17 19 24 0 7 10 18 23 24 21 11 21 11 6 -7 -9 -10 -19 -27
-22 -37 -4 -10 -11 -16 -16 -13 -5 4 -11 0 -14 -6 -3 -10 -7 -10 -17 -1 -20
19 -65 -2 -66 -32 -2 -22 0 -24 14 -13 12 10 12 7 -2 -14 -21 -32 -28 -36 -19
-11 5 13 2 15 -15 11 -14 -4 -20 -2 -16 4 4 6 1 9 -6 6 -7 -2 -15 -15 -17 -29
-2 -13 -8 -25 -13 -27 -6 -2 -10 -8 -10 -13 0 -5 10 -5 24 1 17 6 26 5 30 -3
3 -8 8 -6 16 5 6 10 16 18 22 18 20 0 119 81 130 106 7 14 17 23 25 20 7 -3
13 0 13 6 0 7 4 7 13 -1 14 -11 15 -10 19 37 1 9 -1 29 -5 43 -5 20 -3 29 9
33 12 4 15 2 10 -9 -3 -8 0 -15 7 -15 8 0 8 -3 -2 -9 -11 -7 -11 -13 3 -32 9
-13 19 -23 21 -21 3 2 9 2 13 -1 4 -2 1 -2 -5 -1 -15 4 -17 -12 -3 -21 6 -3
10 -12 10 -18 0 -7 -4 -6 -10 3 -6 9 -10 10 -10 3 0 -19 -31 -45 -47 -39 -18
7 -57 -55 -40 -66 14 -9 8 -15 -18 -20 -11 -1 -23 -7 -27 -13 -4 -5 -10 -6
-14 -2 -4 3 -1 14 7 24 12 15 12 16 -5 9 -20 -7 -20 -6 -1 14 15 17 16 20 3
15 -19 -7 -31 -32 -22 -46 3 -5 -1 -9 -8 -10 -7 0 -5 -4 5 -8 17 -6 16 -10
-12 -40 -17 -18 -35 -29 -42 -26 -8 6 -7 10 2 16 12 7 11 9 -1 9 -10 0 -7 7
10 20 14 11 21 20 15 19 -15 0 -45 -25 -45 -37 0 -5 -7 -12 -15 -16 -8 -3 -15
-11 -15 -18 0 -9 3 -9 12 0 24 24 31 11 7 -14 -13 -14 -19 -24 -14 -22 6 2 10
-1 10 -7 0 -5 -4 -9 -8 -7 -5 1 -6 -2 -2 -8 3 -6 10 -8 15 -5 4 3 10 -4 13
-15 4 -17 2 -18 -15 -9 -19 10 -19 9 -3 -20 8 -17 19 -31 23 -31 19 0 97 44
113 64 21 25 24 40 7 30 -10 -5 -10 -4 -1 6 21 23 35 0 14 -26 -11 -14 -19
-40 -19 -65 -1 -23 -6 -47 -12 -53 -9 -8 -11 -2 -8 24 2 30 0 35 -17 32 -38
-6 -43 -10 -38 -36 3 -14 9 -23 14 -21 4 3 6 14 4 25 -3 13 2 20 13 20 12 0
13 -3 5 -11 -6 -6 -9 -17 -7 -23 3 -7 -7 -25 -22 -39 -17 -17 -22 -27 -13 -27
11 0 11 -2 -1 -10 -12 -8 -12 -10 -1 -10 11 0 11 -3 0 -17 -8 -10 3 -5 24 10
20 15 42 25 47 22 6 -3 10 1 10 10 0 12 -5 15 -17 11 -14 -6 -14 -3 3 16 22
24 39 71 35 98 -2 13 0 13 8 1 6 -10 6 -21 0 -33 -5 -9 -7 -31 -4 -48 3 -19 0
-39 -10 -53 -18 -26 -19 -37 -2 -33 6 1 9 1 5 -1 -5 -3 -8 -13 -8 -22 0 -10
-9 -28 -20 -41 -24 -28 -25 -31 -3 -23 10 4 14 2 9 -5 -4 -7 2 -9 20 -6 28 5
64 25 104 58 14 11 19 14 13 6 -7 -8 -13 -25 -13 -38 0 -21 -2 -22 -15 -12
-12 10 -15 10 -15 -3 0 -24 22 -32 35 -14 16 22 24 21 45 -3 12 -13 21 -17 25
-10 3 6 11 7 17 4 17 -11 58 -13 58 -4 0 4 10 10 21 13 15 4 20 11 16 24 -6
17 -6 17 6 0 7 -11 24 -33 39 -50 15 -18 28 -35 28 -39 0 -5 6 -8 14 -8 8 0
16 -5 18 -11 2 -5 12 -12 23 -14 11 -2 20 -4 20 -5 0 -1 10 -3 22 -6 17 -3 21
0 17 11 -4 8 -11 15 -17 15 -6 0 -7 3 -4 7 4 3 15 -1 26 -11 14 -13 24 -14 44
-7 21 8 26 7 30 -8 5 -21 84 -51 135 -51 23 0 32 -4 29 -12 -2 -7 -13 -12 -23
-11 -10 2 -34 4 -51 4 -18 1 -33 7 -33 13 0 6 -4 5 -9 -3 -6 -10 -13 -10 -29
-2 -29 15 -41 -19 -13 -37 39 -26 75 -61 69 -67 -3 -4 -16 4 -29 17 -30 29
-143 88 -169 88 -12 0 -20 -7 -20 -17 0 -20 14 -45 24 -44 21 3 27 -1 23 -13
-4 -10 2 -17 16 -21 42 -12 87 -36 87 -46 0 -6 -8 -9 -17 -6 -10 2 -46 -12
-81 -31 -35 -19 -65 -32 -67 -30 -3 2 9 21 26 41 l30 37 -28 10 c-15 6 -45 20
-67 31 -31 16 -49 19 -90 14 -28 -4 -55 -9 -59 -12 -5 -3 -14 2 -20 10 -7 8
-34 20 -62 27 -27 7 -61 20 -75 30 -14 9 -35 20 -46 24 -11 3 -27 22 -34 41
-12 31 -16 34 -28 21 -13 -13 -13 -18 1 -40 10 -14 17 -28 17 -31 0 -11 -29
-4 -37 9 -13 22 -46 34 -70 25 -33 -12 -19 -39 21 -39 28 0 137 -59 111 -60
-5 -1 8 -10 30 -22 31 -16 55 -20 117 -19 43 1 83 -1 88 -4 12 -8 -37 -54 -64
-61 -35 -8 -171 0 -171 11 0 6 10 11 23 13 12 2 22 8 22 13 0 9 -15 13 -34 10
-4 -1 -24 7 -43 19 -19 11 -47 20 -64 20 -32 0 -38 14 -13 28 14 8 12 10 -10
16 -28 7 -81 80 -71 96 9 14 55 12 56 -2 1 -17 17 22 18 43 1 8 -19 30 -44 48
-37 26 -45 29 -45 15 0 -10 3 -14 6 -11 4 4 15 -3 26 -15 16 -18 16 -24 5 -35
-15 -15 -47 -8 -47 10 0 6 -12 23 -27 39 l-26 27 -24 -31 c-12 -18 -23 -37
-23 -44 0 -6 -11 -19 -24 -28 -23 -15 -25 -15 -21 4 3 14 -1 17 -12 13 -12 -5
-14 -1 -8 18 18 56 18 55 7 40 -5 -7 -15 -10 -21 -7 -6 4 -11 0 -11 -8 0 -9 5
-16 11 -16 5 0 -2 -11 -17 -25 -22 -20 -25 -30 -20 -57 15 -72 17 -117 7 -137
-15 -26 -31 -27 -31 -2 0 11 -4 22 -9 25 -4 3 -11 28 -15 56 -7 51 -24 66 -33
29 -3 -11 -11 -18 -17 -16 -15 6 -50 -45 -65 -95 -7 -20 -19 -42 -28 -50 -9
-7 -14 -8 -11 -2 10 15 -57 47 -86 42 -18 -4 -26 -1 -26 8 0 8 -4 14 -10 14
-5 0 -10 -4 -10 -10 0 -5 -9 -10 -19 -10 -17 0 -20 -8 -23 -52 -3 -52 -4 -53
-35 -56 -18 -2 -33 -7 -33 -13 0 -5 -10 -8 -23 -7 -12 0 -29 -1 -37 -3 -8 -2
-14 1 -13 8 2 7 -4 10 -12 7 -37 -14 -5 -33 58 -36 23 -1 34 -5 31 -13 -3 -8
9 -15 33 -18 64 -11 97 -8 128 13 36 24 45 25 45 4 0 -11 5 -14 16 -10 9 3 23
6 32 6 14 0 15 2 2 10 -19 12 -8 16 90 30 104 16 158 27 137 29 -19 1 -55 30
-40 32 4 1 31 3 58 4 28 2 70 10 94 19 60 22 143 21 189 -3 43 -23 169 -46
203 -38 97 23 115 30 126 44 8 10 34 17 76 20 64 5 65 5 65 -20 0 -28 -19 -37
-75 -37 -17 0 -35 -4 -38 -10 -4 -6 16 -10 52 -10 32 0 83 -7 113 -15 30 -8
82 -17 115 -21 33 -3 94 -15 136 -25 42 -11 87 -22 100 -25 101 -25 342 -53
504 -59 279 -11 346 -8 447 17 45 11 50 10 119 -26 39 -21 81 -46 93 -57 11
-11 44 -31 73 -46 l53 -25 318 4 c252 4 332 9 389 22 50 12 70 21 67 30 -3 8
2 16 10 19 8 3 22 20 31 38 14 26 15 41 6 90 -5 33 -17 69 -26 81 l-15 22 0
-21 c0 -12 5 -34 12 -48 13 -28 1 -45 -31 -45 -12 0 -11 3 2 13 27 20 1 84
-45 113 -40 26 -49 37 -20 27 15 -6 15 -4 -2 15 -11 12 -25 22 -33 22 -7 0
-13 6 -13 14 0 19 -37 63 -45 54 -4 -3 0 -21 8 -40 25 -55 43 -112 41 -125 -1
-7 -3 -23 -4 -35 -2 -22 -2 -22 -10 2 -4 14 -8 19 -9 12 -2 -21 -21 -3 -21 19
0 10 -4 19 -9 19 -6 0 -8 9 -6 20 4 19 -5 24 -32 21 -7 -1 -15 11 -19 26 -4
15 -11 34 -16 40 -6 7 -8 20 -4 28 3 10 2 14 -5 9 -6 -3 -9 -15 -6 -25 6 -21
-8 -26 -17 -6 -3 8 -9 6 -20 -7 -9 -11 -16 -15 -16 -9 0 7 5 15 10 18 6 3 10
11 10 17 0 6 -9 3 -21 -8 -11 -10 -18 -26 -16 -36 3 -10 1 -16 -3 -13 -11 7
-8 65 4 83 4 7 5 16 2 19 -3 3 -1 12 5 19 8 10 -1 18 -38 35 -26 12 -57 23
-68 24 -11 1 -49 5 -83 9 -61 8 -63 7 -54 -11 11 -20 11 -73 1 -73 -4 0 -9
-15 -11 -34 -2 -19 0 -32 4 -30 11 7 10 -18 -2 -36 -7 -11 -10 -12 -10 -2 0 7
-7 21 -16 29 -8 9 -12 19 -7 22 9 7 10 13 18 69 6 51 -11 67 -66 59 -41 -5
-41 -5 -18 11 17 12 45 17 99 17 70 0 93 -4 130 -18 26 -10 75 -3 72 11 -1 7
8 12 23 12 38 0 30 15 -16 30 -30 10 -36 16 -25 22 9 5 31 3 55 -5 33 -12 38
-12 34 -1 -3 8 -9 12 -14 9 -10 -7 -31 30 -22 39 3 3 1 6 -5 6 -7 0 -12 5 -12
11 0 6 9 8 21 4 18 -6 20 -4 14 16 -6 18 -4 21 9 16 22 -9 21 9 -1 22 -16 9
-15 10 7 11 24 0 24 2 -13 35 -21 19 -36 38 -34 42 3 4 29 7 59 5 29 -1 63 -3
75 -3 12 1 25 -4 28 -9 7 -12 45 -14 46 -2 0 4 2 17 3 29 4 33 8 35 76 36 33
0 56 3 50 7 -15 9 27 28 84 37 27 5 51 14 54 21 5 16 -52 10 -157 -15 -36 -8
-88 -16 -117 -18 -29 -2 -58 -6 -64 -10 -6 -4 -14 -5 -17 -2 -2 3 5 10 16 17
12 6 18 16 15 22 -4 7 -3 8 4 4 7 -4 12 -3 12 3 0 6 12 22 27 36 15 14 22 25
15 25 -6 0 -12 7 -12 15 0 8 -5 15 -11 15 -5 0 -7 5 -4 10 4 6 9 8 13 6 4 -2
12 2 19 9 10 10 9 16 -3 26 -8 7 -12 20 -9 30 4 11 3 19 -2 20 -27 2 -47 9
-57 19 -6 6 -7 11 -1 10 6 -2 19 -2 30 -1 19 2 18 3 -2 11 -33 13 -28 29 7 24
24 -4 29 -2 24 11 -7 17 14 48 26 40 17 -11 20 15 5 38 -21 32 -63 51 -80 37
-11 -9 -12 -7 -8 9 4 16 9 18 23 11 11 -6 21 -5 29 3 10 9 12 9 9 -3 -2 -9 6
-16 21 -18 18 -3 22 0 18 12 -4 9 -2 16 2 16 5 0 7 9 4 20 -3 10 -8 19 -12 18
-3 -1 -13 1 -21 5 -8 3 -22 8 -30 10 -8 3 -1 6 16 6 24 1 33 6 38 23 6 27 -5
41 -36 43 -15 1 -22 8 -20 19 2 9 -2 16 -7 16 -6 0 -8 7 -4 16 4 11 2 15 -7
12 -13 -4 -16 -10 -27 -68 -7 -38 -17 -38 -33 0 -14 35 -8 49 15 30 41 -34 -4
102 -56 169 -11 13 -19 20 -19 15 0 -5 7 -18 15 -28 17 -23 20 -56 5 -56 -16
0 -11 -36 15 -106 14 -36 25 -73 25 -80 0 -27 -15 -14 -34 29 -10 24 -20 36
-23 29 -3 -8 2 -28 10 -45 9 -18 19 -49 22 -70 3 -20 14 -45 24 -55 23 -22 36
-55 19 -50 -11 4 -47 60 -63 98 -4 8 -11 24 -16 35 -8 17 -9 16 -4 -6 5 -30
-12 -99 -25 -99 -6 0 -10 -9 -10 -20 0 -10 -5 -53 -11 -95 -8 -52 -16 -75 -25
-75 -8 0 -14 -5 -14 -11 0 -6 -9 -22 -20 -36 -11 -14 -20 -34 -20 -44 0 -14
-7 -19 -26 -19 -20 0 -24 3 -17 13 26 34 44 191 29 251 -6 26 -5 28 8 17 13
-11 16 -11 16 3 0 9 -3 16 -8 16 -4 0 -13 14 -21 32 -13 28 -12 32 4 44 15 11
17 22 11 62 -4 34 -2 60 9 85 17 42 20 93 5 102 -6 4 -8 11 -5 16 4 5 2 9 -3
9 -5 0 -12 -9 -15 -20 -3 -11 -1 -20 4 -20 12 0 11 -61 -1 -80 -8 -13 -10 -12
-10 5 0 29 -20 4 -24 -31 -2 -16 -9 -28 -15 -27 -7 2 -7 -5 1 -23 7 -16 8 -28
2 -32 -15 -11 -14 -63 1 -86 17 -24 20 -40 5 -31 -5 3 -10 1 -10 -5 0 -7 -7
-10 -15 -6 -11 4 -15 -1 -15 -19 0 -18 -5 -25 -20 -25 -11 0 -20 -6 -20 -14 0
-10 -10 -14 -29 -14 -32 1 -83 -31 -77 -48 3 -7 -6 -28 -20 -47 -29 -43 -30
-48 -6 -40 11 4 8 -1 -8 -15 -14 -12 -19 -21 -12 -22 10 0 10 -3 -1 -15 -9 -8
-13 -24 -10 -36 4 -14 2 -20 -4 -16 -14 9 -63 -30 -63 -49 0 -8 -4 -14 -10
-14 -5 0 -10 -7 -10 -15 0 -7 -8 -18 -17 -24 -10 -5 -15 -13 -11 -16 10 -10
-20 -38 -32 -30 -6 3 -7 -1 -4 -9 4 -10 1 -16 -7 -16 -7 0 -10 -3 -6 -6 3 -4
-1 -13 -9 -21 -8 -8 -12 -19 -9 -24 4 -5 -5 -9 -19 -9 -30 0 -44 -18 -25 -32
10 -6 7 -7 -10 -3 -19 6 -23 4 -18 -8 4 -11 2 -14 -9 -10 -7 3 -14 0 -14 -6 0
-6 -8 -8 -17 -4 -16 6 -16 5 -4 -10 8 -10 11 -21 7 -24 -11 -12 -41 13 -41 33
-1 28 -15 64 -26 64 -5 0 -9 5 -9 11 0 8 4 9 13 0 8 -6 17 -8 21 -4 4 4 4 1 1
-8 -3 -8 1 -23 8 -33 13 -17 14 -17 30 -1 9 9 17 25 17 36 0 11 6 22 14 25 7
3 24 25 36 50 13 24 27 44 32 44 5 0 7 4 3 9 -3 5 6 22 20 37 13 14 22 30 19
35 -3 5 2 9 11 9 12 0 14 6 9 28 -7 25 -6 26 11 12 17 -14 17 -14 2 17 -21 40
-43 55 -35 25 7 -24 -2 -28 -20 -10 -15 15 -16 32 -1 22 8 -5 8 -1 0 14 -6 12
-16 24 -21 27 -6 4 -8 10 -5 15 3 5 -3 14 -14 20 -11 5 -22 6 -25 1 -7 -10
-33 -8 -66 6 -14 5 -32 13 -40 16 -8 3 0 6 18 6 17 1 32 5 32 10 0 5 6 9 13 8
49 -2 77 4 71 15 -4 6 1 17 11 25 18 12 18 13 -3 13 -12 0 -22 -3 -22 -8 0
-17 -81 -40 -165 -46 -53 -4 -84 -3 -75 3 8 4 54 11 103 14 97 7 130 18 82 28
-28 6 -28 7 10 8 22 1 48 8 58 15 16 13 16 14 -4 19 -12 3 -31 -1 -43 -9 -24
-17 -36 -18 -36 -3 0 5 5 7 10 4 9 -6 12 1 9 22 -1 10 30 25 41 18 5 -3 7 4 5
16 -3 16 0 19 12 15 13 -5 14 -4 4 8 -9 11 -8 15 6 21 15 6 13 9 -12 20 l-30
13 33 14 c30 13 32 16 18 30 -13 14 -12 17 12 28 18 8 22 14 14 17 -8 3 -26
-4 -41 -15 -20 -14 -32 -17 -42 -10 -11 8 -11 9 3 5 15 -5 34 17 30 36 -1 4 2
7 8 7 5 0 7 7 4 15 -4 8 -1 15 5 15 6 0 11 5 11 12 0 9 -3 9 -12 0 -7 -7 -20
-12 -30 -12 -24 0 -13 26 14 34 17 4 19 8 9 19 -6 8 -22 13 -34 11 -12 -3 -4
4 18 15 23 11 32 20 23 20 -10 1 -18 6 -18 11 0 6 -10 10 -22 10 -13 0 -30 5
-38 10 -13 8 -12 10 5 11 11 1 29 1 40 1 16 -2 17 0 5 8 -8 5 -10 10 -5 10 6
0 4 4 -4 9 -9 6 0 8 26 7 23 -1 49 1 59 5 14 5 7 8 -21 9 -22 2 -43 2 -47 1
-10 -1 19 51 34 60 9 6 6 10 -12 17 l-24 9 27 7 c28 7 37 26 13 26 -8 0 -18 5
-22 11 -4 8 4 9 27 4 30 -7 32 -6 20 9 -12 14 -12 16 5 10 15 -4 14 -1 -5 14
l-24 19 36 -2 c20 -2 42 -6 49 -10 7 -3 3 2 -9 11 -33 24 -29 38 10 30 84 -18
108 -18 145 0 28 14 33 19 19 22 -10 2 -26 -3 -36 -12 -22 -20 -37 -20 -45 -1
-4 11 2 15 22 16 17 1 20 3 10 6 -25 6 -22 20 5 33 20 10 21 10 4 -3 -17 -14
-15 -15 17 -14 19 0 32 5 29 10 -3 5 1 13 8 18 11 8 10 12 -5 24 -14 11 -16
15 -5 15 10 1 8 4 -5 11 -15 9 -16 13 -5 21 10 7 9 8 -6 3 -49 -17 -50 -17
-32 -2 16 13 14 15 -20 30 -29 11 -33 15 -16 16 12 1 25 -3 28 -9 3 -5 14 -10
23 -10 11 0 5 9 -18 30 -30 25 -32 29 -15 30 19 1 19 1 -3 13 -15 9 -19 16
-12 23 7 7 6 11 -4 11 -8 0 -13 -4 -10 -9 8 -13 -3 -10 -36 11 l-31 18 41 -3
c22 -1 38 1 35 6 -3 5 -13 6 -22 3 -12 -5 -15 -2 -10 10 4 10 0 20 -9 25 -8 5
-16 15 -17 23 -4 26 -16 37 -42 37 -13 0 -22 -4 -19 -9 3 -5 13 -9 24 -9 13 0
17 -5 13 -19 -3 -10 0 -22 7 -26 8 -5 6 -11 -7 -20 -15 -11 -16 -15 -3 -30 14
-16 13 -17 -10 -11 -23 7 -23 6 5 -14 24 -18 26 -20 8 -15 -23 6 -33 -10 -11
-17 6 -2 12 -14 13 -25 0 -12 7 -28 14 -37 21 -26 -3 -18 -47 14 -23 17 -46
30 -50 30 -5 0 -17 10 -28 23 -19 22 -19 22 1 6 24 -20 54 -21 51 -2 -3 16
-76 93 -89 93 -5 0 -4 -6 2 -14 10 -12 9 -13 -7 -9 -11 2 -23 0 -27 -7 -5 -8
-11 -6 -21 7 -17 22 -18 37 -2 27 8 -5 9 -2 5 9 -8 22 -2 21 55 -7 49 -24 72
-24 40 0 -16 13 -16 13 1 14 25 0 21 14 -8 30 -14 7 -23 15 -21 17 2 3 15 -1
28 -8 21 -11 22 -11 9 5 -9 11 -24 16 -38 13 -12 -2 -20 -1 -18 4 3 4 -3 10
-14 14 -11 3 -22 13 -25 21 -4 11 -13 13 -28 9 -18 -5 -20 -4 -8 4 12 9 13 11
1 11 -8 0 -12 2 -9 5 11 11 58 -7 58 -22 0 -11 7 -14 28 -9 17 4 22 3 14 -2
-10 -7 -6 -12 19 -21 41 -14 44 -14 29 4 -7 8 -16 13 -19 10 -4 -2 -8 2 -8 11
0 10 7 12 21 9 21 -6 21 -6 1 10 -12 9 -21 12 -23 5 -2 -5 -8 -10 -13 -10 -6
0 -7 5 -4 10 4 6 -7 16 -24 23 -17 7 -28 16 -24 20 3 4 -2 7 -11 7 -11 0 -16
5 -13 14 6 16 -39 40 -56 30 -7 -4 -9 -4 -5 1 11 12 -11 35 -34 35 -10 0 -16
5 -13 10 10 16 43 12 62 -9 27 -28 56 -39 78 -30 17 6 15 8 -10 8 -36 1 -60
15 -51 29 3 5 -8 15 -26 21 -26 9 -35 8 -49 -5 -10 -9 -15 -22 -13 -29 5 -11
-1 -12 -30 -3 -36 11 -42 30 -6 21 30 -8 24 12 -7 24 -26 10 -25 10 12 7 29
-3 36 -1 25 6 -8 5 -37 10 -65 11 -27 0 -61 5 -75 10 -16 5 15 7 85 5 61 -2
93 -1 73 1 -26 3 -38 9 -38 20 0 11 7 14 28 9 23 -5 24 -5 9 5 -11 6 -30 9
-45 6 -15 -3 -31 1 -39 9 -8 8 -22 14 -31 14 -15 0 -15 -2 -2 -10 18 -12 -37
-12 -85 -1 l-30 7 40 12 c22 7 48 12 58 12 9 0 17 5 17 10 0 6 10 10 22 10 16
0 19 3 11 11 -8 8 -18 6 -37 -6 -24 -16 -28 -16 -51 -1 -17 11 -31 13 -47 7
-13 -5 -33 -5 -45 0 -12 4 -42 2 -72 -6 -31 -8 -49 -9 -45 -3 4 6 -1 8 -14 4
-11 -4 -23 -2 -27 4 -4 6 6 10 25 10 18 0 29 4 25 10 -6 10 -26 11 -58 3z
m123 -37 c0 -2 -9 -6 -20 -9 -11 -3 -18 -1 -14 4 5 9 34 13 34 5z m65 -15
c-10 -8 -95 -22 -95 -15 0 5 61 22 85 23 11 1 15 -3 10 -8z m42 3 c-3 -3 -12
-4 -19 -1 -8 3 -5 6 6 6 11 1 17 -2 13 -5z m81 -59 c-3 -4 -94 -14 -148 -17
-32 -2 -25 7 10 12 55 9 145 12 138 5z m152 -125 c0 -5 -4 -10 -9 -10 -6 0
-13 5 -16 10 -3 6 1 10 9 10 9 0 16 -4 16 -10z m27 -36 c-3 -3 -12 -4 -19 -1
-8 3 -5 6 6 6 11 1 17 -2 13 -5z m7 -26 c15 -8 16 -12 5 -19 -9 -5 -17 -3 -22
6 -4 8 -16 15 -25 14 -14 0 -13 -2 3 -9 13 -6 15 -9 5 -9 -19 -1 -34 10 -38
27 -2 13 36 8 72 -10z m-9 -48 c3 -6 -1 -7 -9 -4 -18 7 -21 14 -7 14 6 0 13
-4 16 -10z m-670 -64 c0 -19 -4 -38 -9 -43 -5 -5 -6 -3 -2 5 9 15 -2 52 -15
52 -6 0 -8 -10 -5 -22 l6 -23 -11 22 c-9 17 -9 26 0 37 19 23 36 9 36 -28z
m680 26 c-3 -3 -11 0 -18 7 -9 10 -8 11 6 5 10 -3 15 -9 12 -12z m-595 4 c0
-2 -8 -10 -17 -17 -16 -13 -17 -12 -4 4 13 16 21 21 21 13z m659 -32 c17 -13
20 -19 11 -28 -9 -8 -14 -8 -17 2 -3 7 -11 19 -20 27 -19 20 -3 19 26 -1z
m-330 -3 c9 -6 1 -10 -25 -13 -47 -6 -55 -2 -23 11 31 12 31 12 48 2z m-219
-5 c0 -3 -4 -8 -10 -11 -5 -3 -10 -1 -10 4 0 6 5 11 10 11 6 0 10 -2 10 -4z
m252 -15 c-10 -6 -5 -10 16 -14 16 -3 37 -13 45 -21 9 -9 23 -13 31 -10 22 9
20 -3 -3 -15 -14 -8 -24 -6 -41 9 -13 11 -27 21 -32 21 -4 1 -12 2 -17 3 -26
3 -24 36 2 36 8 0 8 -3 -1 -9z m-202 -5 c0 -3 -4 -8 -10 -11 -5 -3 -10 -1 -10
4 0 6 5 11 10 11 6 0 10 -2 10 -4z m170 -5 c0 -6 -9 -9 -19 -8 -11 0 -17 5
-15 9 7 11 34 10 34 -1z m260 -36 c0 -2 -13 2 -30 8 -16 6 -30 17 -30 25 0 9
9 7 30 -8 17 -12 30 -23 30 -25z m-653 15 c1 -11 -2 -20 -8 -20 -10 0 -12 23
-2 33 9 9 9 10 10 -13z m672 -45 c11 -11 11 -13 -5 -12 -15 2 -18 -4 -16 -23
3 -24 2 -24 -12 -5 -18 24 -20 39 -5 29 7 -4 10 -1 7 7 -3 8 -10 14 -15 14 -6
0 -15 3 -18 7 -4 4 5 5 21 2 16 -3 35 -11 43 -19z m-59 -11 c0 -2 -9 0 -20 6
-11 6 -20 13 -20 16 0 2 9 0 20 -6 11 -6 20 -13 20 -16z m-355 -14 c-3 -5 -18
-9 -33 -9 l-27 1 30 8 c17 4 31 8 33 9 2 0 0 -3 -3 -9z m450 -30 c4 0 2 7 -5
15 -11 13 -10 14 4 9 9 -3 15 -12 14 -18 -2 -7 11 -25 27 -40 29 -28 29 -28 3
-12 -24 14 -27 14 -22 1 5 -11 2 -13 -10 -9 -9 4 -16 1 -16 -6 0 -7 9 -10 23
-7 16 4 28 -3 47 -26 13 -18 17 -26 7 -18 -10 8 -20 11 -24 8 -3 -4 -12 -2
-20 4 -16 14 -17 5 -2 -24 9 -18 9 -20 -2 -9 -7 6 -19 12 -27 12 -9 0 -6 -7 9
-20 l24 -19 -34 9 c-25 7 -39 6 -50 -3 -14 -11 -14 -10 -2 6 10 13 11 17 1 17
-9 0 -11 11 -7 35 4 23 2 35 -6 35 -8 0 -7 3 2 9 11 7 10 10 -4 18 -16 9 -16
10 0 17 12 4 18 0 22 -15 4 -15 8 -17 14 -8 4 7 5 18 1 24 -4 6 1 2 11 -8 25
-27 21 -5 -5 29 -20 26 -20 27 -2 12 11 -10 24 -18 29 -18z m260 -10 c3 -6 -1
-7 -9 -4 -18 7 -21 14 -7 14 6 0 13 -4 16 -10z m-127 -71 c4 13 62 -17 62 -32
0 -5 9 -7 20 -4 11 3 18 1 15 -4 -4 -5 9 -6 27 -3 l33 5 -37 -16 c-27 -12 -35
-21 -30 -33 9 -26 35 -43 44 -29 6 9 8 9 8 0 0 -6 -5 -15 -11 -18 -6 -4 -8
-13 -5 -21 8 -20 -45 -18 -70 2 -17 14 -17 15 -1 10 10 -3 25 1 34 10 14 13
13 14 -11 8 -28 -7 -86 12 -86 28 0 5 9 4 21 -2 11 -7 23 -9 26 -6 3 3 -7 10
-23 16 -16 7 -24 14 -18 18 10 6 11 40 2 46 -29 20 -59 46 -53 46 5 0 0 10
-11 23 -10 12 -1 5 21 -17 22 -21 41 -33 43 -27z m-1529 -49 c-20 -11 -93 -20
-82 -10 10 10 40 17 73 19 20 0 22 -1 9 -9z m261 -17 c0 -7 5 -13 10 -13 6 0
10 -4 10 -10 0 -6 -10 -5 -25 2 -14 6 -25 15 -25 20 0 5 -4 6 -10 3 -5 -3 -10
-2 -10 3 0 6 11 9 25 8 14 0 25 -7 25 -13z m-185 -12 c-3 -6 -11 -9 -16 -5 -5
3 -16 0 -24 -6 -11 -9 -18 -8 -32 6 -17 17 -17 17 7 12 14 -4 34 -3 45 2 23 9
30 6 20 -9z m47 4 c5 -6 8 -5 8 3 0 14 48 6 65 -11 7 -6 1 -7 -17 -3 -17 4
-28 2 -28 -4 0 -7 -7 -7 -21 1 -17 9 -23 8 -30 -2 -11 -18 -21 -6 -13 14 6 17
24 18 36 2z m-232 -5 c0 -5 -2 -10 -4 -10 -3 0 -8 5 -11 10 -3 6 -1 10 4 10 6
0 11 -4 11 -10z m55 -8 c-11 -2 -28 -11 -38 -20 -9 -8 -20 -13 -23 -10 -10 11
47 47 64 40 15 -6 14 -7 -3 -10z m367 -34 c-7 -7 -12 -8 -12 -2 0 6 3 14 7 17
3 4 9 5 12 2 2 -3 -1 -11 -7 -17z m-485 -9 c-9 -6 -15 -14 -12 -18 2 -5 -2
-14 -10 -21 -10 -9 -15 -9 -15 -1 0 6 5 11 12 11 6 0 8 3 5 7 -9 8 12 33 27
33 6 0 3 -5 -7 -11z m276 -2 c13 3 18 1 11 -4 -6 -4 -14 -18 -18 -30 -4 -13
-13 -23 -21 -23 -19 0 -27 28 -13 53 6 12 13 17 15 11 2 -7 14 -10 26 -7z
m-166 -37 c1 -11 -2 -22 -8 -25 -5 -4 -9 -2 -9 4 0 6 -7 8 -15 5 -10 -4 -15 0
-15 11 0 9 4 14 9 10 5 -3 12 -1 16 5 10 16 21 12 22 -10z m221 -5 c-3 -3 -9
2 -12 12 -6 14 -5 15 5 6 7 -7 10 -15 7 -18z m-132 -3 c-3 -2 -17 -6 -31 -8
-21 -2 -24 0 -15 11 6 7 20 11 31 8 11 -3 18 -8 15 -11z m-180 -4 c4 -6 3 -8
-4 -4 -6 3 -13 2 -17 -4 -3 -5 -11 -10 -17 -10 -7 0 -6 6 2 15 15 18 26 19 36
3z m34 2 c0 -5 -2 -10 -4 -10 -3 0 -8 5 -11 10 -3 6 -1 10 4 10 6 0 11 -4 11
-10z m250 0 c0 -5 -5 -10 -11 -10 -5 0 -7 5 -4 10 3 6 8 10 11 10 2 0 4 -4 4
-10z m259 -11 c-9 -17 -13 -19 -20 -8 -7 12 3 22 29 28 1 1 -2 -9 -9 -20z m28
1 c-1 -11 -7 -22 -14 -24 -16 -7 -16 -1 -1 24 16 25 17 25 15 0z m473 0 c6
-11 8 -20 6 -20 -3 0 -10 9 -16 20 -6 11 -8 20 -6 20 3 0 10 -9 16 -20z m-690
-10 c0 -5 -5 -10 -11 -10 -5 0 -7 5 -4 10 3 6 8 10 11 10 2 0 4 -4 4 -10z
m731 -51 c2 5 17 -8 32 -30 16 -21 24 -39 18 -39 -6 0 -11 5 -11 11 0 6 -7 8
-17 5 -10 -4 -14 -4 -10 0 4 4 -10 26 -30 48 -21 23 -26 30 -12 18 15 -13 28
-19 30 -13z m-26 -19 c10 -11 13 -20 7 -20 -6 0 -16 9 -22 20 -6 11 -9 20 -7
20 2 0 12 -9 22 -20z m-1126 -50 c11 -24 11 -24 -3 -6 -9 11 -16 24 -16 30 0
12 5 7 19 -24z m406 10 c3 -5 1 -10 -4 -10 -6 0 -11 5 -11 10 0 6 2 10 4 10 3
0 8 -4 11 -10z m383 -17 c-15 -15 -30 -24 -34 -21 -8 8 32 48 48 48 7 0 0 -12
-14 -27z m451 -6 c0 -21 -1 -21 -9 -2 -12 28 -12 37 0 30 6 -3 10 -16 9 -28z
m-51 -1 c7 1 8 0 2 -3 -7 -3 -7 -10 2 -21 7 -10 -2 -4 -20 12 -33 31 -46 51
-14 24 9 -9 23 -14 30 -12z m-1354 -21 c-16 -11 -16 -13 1 -22 16 -9 15 -11
-9 -15 -26 -5 -48 11 -52 38 -2 10 2 11 16 4 13 -7 21 -5 30 5 7 8 17 12 22 9
5 -3 1 -12 -8 -19z m1016 11 c0 -2 -7 -7 -16 -10 -8 -3 -12 -2 -9 4 6 10 25
14 25 6z m450 -16 c13 -9 13 -10 0 -10 -8 0 -22 5 -30 10 -13 9 -13 10 0 10 8
0 22 -5 30 -10z m-598 -22 c-14 -54 -76 -37 -63 17 0 3 16 5 35 3 26 -1 32 -6
28 -20z m38 18 c0 -2 -8 -10 -17 -17 -16 -13 -17 -12 -4 4 13 16 21 21 21 13z
m-510 -10 c0 -3 -4 -8 -10 -11 -5 -3 -10 -1 -10 4 0 6 5 11 10 11 6 0 10 -2
10 -4z m540 -4 c0 -5 -6 -16 -13 -26 -13 -17 -14 -18 -20 -2 -4 10 -3 15 3 11
6 -3 13 1 16 9 7 17 14 21 14 8z m490 -18 c21 -14 43 -24 47 -21 5 3 10 -3 10
-14 2 -22 -12 -25 -24 -6 -4 8 -26 26 -48 40 -22 15 -36 27 -32 27 4 0 25 -12
47 -26z m119 16 c10 0 18 -7 18 -15 0 -8 -7 -15 -14 -15 -8 0 -11 5 -8 10 3 6
-3 10 -14 10 -11 0 -23 5 -27 12 -5 8 -2 9 10 5 10 -4 26 -7 35 -7z m-1329
-10 c0 -5 -5 -10 -11 -10 -5 0 -7 5 -4 10 3 6 8 10 11 10 2 0 4 -4 4 -10z
m1181 -27 c13 -17 13 -17 -6 -3 -11 8 -22 16 -24 17 -2 2 0 3 6 3 6 0 17 -8
24 -17z m-1151 3 c0 -2 3 -11 6 -20 4 -12 0 -16 -16 -16 -18 0 -20 3 -11 14 9
11 9 15 -1 19 -8 4 -7 6 5 6 9 1 17 -1 17 -3z m620 -6 c0 -5 -5 -10 -11 -10
-5 0 -7 5 -4 10 3 6 8 10 11 10 2 0 4 -4 4 -10z m-889 -23 c-10 -9 -11 -8 -5
6 3 10 9 15 12 12 3 -3 0 -11 -7 -18z m827 9 c-2 -8 6 -22 17 -30 11 -9 15
-16 8 -16 -19 0 -43 29 -37 45 8 19 16 19 12 1z m730 8 c29 -8 28 -24 -2 -24
-29 0 -39 -21 -17 -37 9 -6 12 -15 8 -19 -4 -5 -11 -4 -15 2 -4 6 -22 16 -40
23 -18 8 -35 18 -39 24 -3 6 -1 7 6 3 6 -4 23 -9 36 -12 24 -4 30 3 26 34 -2
13 4 14 37 6z m-1474 -19 c-4 -8 -11 -12 -16 -9 -6 4 -5 10 3 15 19 12 19 11
13 -6z m572 -11 c-3 -9 -6 -20 -6 -25 0 -5 -7 -9 -15 -9 -8 0 -15 -5 -15 -12
0 -6 -3 -9 -6 -5 -8 7 27 67 39 67 5 0 6 -7 3 -16z m274 1 c0 -8 -7 -15 -15
-15 -13 0 -14 3 -3 15 16 18 18 18 18 0z m-871 -22 c8 -15 8 -23 1 -23 -5 0
-10 7 -10 16 0 8 -4 12 -10 9 -11 -7 -14 8 -3 18 7 8 7 9 22 -20z m41 3 c0 -3
-4 -8 -10 -11 -5 -3 -10 -1 -10 4 0 6 5 11 10 11 6 0 10 -2 10 -4z m720 -20
c0 -3 -4 -8 -10 -11 -5 -3 -10 -1 -10 4 0 6 5 11 10 11 6 0 10 -2 10 -4z
m-680 -16 c0 -5 -5 -10 -11 -10 -5 0 -7 5 -4 10 3 6 8 10 11 10 2 0 4 -4 4
-10z m-56 -15 c-4 -8 -11 -15 -16 -15 -6 0 -5 6 2 15 7 8 14 15 16 15 2 0 1
-7 -2 -15z m1270 -11 c10 -25 -1 -29 -14 -5 -6 12 -7 21 -1 21 5 0 12 -7 15
-16z m163 10 c-3 -3 -12 -4 -19 -1 -8 3 -5 6 6 6 11 1 17 -2 13 -5z m98 -27
c18 -14 15 -15 -35 -15 -30 1 -46 3 -35 5 35 8 41 23 10 24 -26 0 -27 2 -10 8
20 9 35 4 70 -22z m-815 13 c0 -5 -2 -10 -4 -10 -3 0 -8 5 -11 10 -3 6 -1 10
4 10 6 0 11 -4 11 -10z m-410 -24 c0 -2 -8 -10 -17 -17 -16 -13 -17 -12 -4 4
13 16 21 21 21 13z m400 -6 c0 -5 -4 -10 -10 -10 -5 0 -10 5 -10 10 0 6 5 10
10 10 6 0 10 -4 10 -10z m-560 -4 c0 -2 -8 -10 -17 -17 -16 -13 -17 -12 -4 4
13 16 21 21 21 13z m1135 -5 c3 -6 14 -8 25 -6 13 3 17 -1 13 -11 -3 -8 0 -14
6 -14 7 0 11 -8 9 -17 -2 -10 2 -17 8 -16 7 1 20 -8 30 -20 18 -20 18 -21 1
-7 -19 14 -58 22 -56 11 2 -16 101 -90 113 -85 8 3 17 1 21 -5 4 -7 -1 -8 -12
-4 -16 6 -16 5 -4 -10 7 -9 21 -17 30 -17 16 0 68 -58 64 -71 -1 -4 16 -14 39
-22 30 -12 46 -14 60 -6 10 6 31 8 46 6 25 -4 25 -4 -5 -6 -17 0 -33 -5 -35
-10 -1 -5 -16 -13 -32 -17 -20 -5 -27 -3 -22 4 6 10 -1 14 -57 26 -19 5 -27
12 -23 21 3 10 -5 16 -30 21 -19 3 -32 9 -29 12 3 3 -2 14 -12 24 -9 10 -12
18 -8 18 5 0 -4 14 -20 30 -16 17 -33 30 -38 30 -5 0 -18 11 -29 25 -11 14
-23 23 -28 20 -4 -3 -14 3 -21 13 -12 15 -12 16 2 4 14 -10 18 -10 23 4 4 10
2 22 -4 28 -8 8 -9 6 -4 -8 7 -19 7 -19 -18 0 l-26 19 26 6 c15 4 20 7 11 8
-19 1 -48 31 -31 31 6 0 13 -4 17 -9z m-1311 -27 c5 -14 4 -15 -9 -4 -17 14
-19 20 -6 20 5 0 12 -7 15 -16z m96 11 c0 -3 -8 -15 -19 -26 -16 -17 -19 -18
-24 -5 -4 10 -1 16 8 16 8 0 15 5 15 10 0 6 5 10 10 10 6 0 10 -2 10 -5z m369
-12 c0 -11 -3 -13 -6 -5 -2 6 -10 9 -15 6 -7 -4 -8 -2 -4 4 11 18 26 14 25 -5z
m396 7 c3 -5 1 -10 -4 -10 -6 0 -11 5 -11 10 0 6 2 10 4 10 3 0 8 -4 11 -10z
m663 -2 c7 -7 12 -8 12 -2 0 6 19 11 43 12 l42 1 -30 -13 c-16 -8 -35 -12 -42
-9 -7 3 -13 0 -13 -7 0 -7 14 -11 38 -9 25 2 36 -1 35 -9 -4 -16 29 -15 47 1
12 10 12 9 1 -5 -7 -10 -24 -18 -36 -18 -13 0 -25 -4 -27 -8 -1 -4 -16 -5 -33
-1 l-30 7 33 1 c41 1 33 21 -8 21 -20 0 -31 6 -35 19 -3 11 -14 22 -23 24 -14
4 -14 5 -1 6 8 0 20 -4 27 -11z m-768 -8 c0 -5 -2 -10 -4 -10 -3 0 -8 5 -11
10 -3 6 -1 10 4 10 6 0 11 -4 11 -10z m-791 -17 c-10 -11 -10 -14 -1 -9 6 4
12 3 12 -2 0 -14 -39 -22 -46 -10 -3 5 2 16 12 23 26 20 39 18 23 -2z m-89
-17 c0 -3 -4 -8 -10 -11 -5 -3 -10 -1 -10 4 0 6 5 11 10 11 6 0 10 -2 10 -4z
m935 -14 c-3 -3 -11 0 -18 7 -9 10 -8 11 6 5 10 -3 15 -9 12 -12z m300 4 c18
-13 18 -14 -8 -9 -15 3 -30 9 -33 14 -8 14 20 10 41 -5z m-1277 -16 c-7 -10
-14 -18 -15 -16 -6 6 9 36 18 36 5 0 4 -9 -3 -20z m188 0 c0 -20 -7 -25 -19
-14 -7 7 2 34 12 34 4 0 7 -9 7 -20z m872 -5 c-3 -3 -9 2 -12 12 -6 14 -5 15
5 6 7 -7 10 -15 7 -18z m-1003 5 c4 -6 -6 -10 -22 -9 -25 0 -26 1 -8 9 11 5
21 9 22 9 1 1 5 -3 8 -9z m2664 -26 c-6 -16 -13 -24 -16 -17 -5 13 16 58 23
50 3 -2 -1 -17 -7 -33z m-1724 6 c3 -5 2 -10 -4 -10 -5 0 -13 5 -16 10 -3 6
-2 10 4 10 5 0 13 -4 16 -10z m138 -5 c-3 -9 -8 -14 -10 -11 -3 3 -2 9 2 15 9
16 15 13 8 -4z m664 9 c-3 -3 -12 -4 -19 -1 -8 3 -5 6 6 6 11 1 17 -2 13 -5z
m188 -4 c-3 -5 -14 -10 -23 -10 -15 0 -15 2 -2 10 20 13 33 13 25 0z m-1865
-22 c0 -6 -6 -5 -15 2 -8 7 -15 14 -15 16 0 2 7 1 15 -2 8 -4 15 -11 15 -16z
m97 0 c-3 -8 -6 -5 -6 6 -1 11 2 17 5 13 3 -3 4 -12 1 -19z m817 7 c-4 -8 -11
-15 -16 -15 -6 0 -5 6 2 15 7 8 14 15 16 15 2 0 1 -7 -2 -15z m-69 -13 c-3 -3
-11 0 -18 7 -9 10 -8 11 6 5 10 -3 15 -9 12 -12z m317 -1 c6 -10 19 -17 27
-14 9 2 5 -2 -8 -10 -15 -9 -20 -17 -12 -21 6 -4 11 -2 11 4 0 6 5 8 12 4 9
-6 9 -9 0 -12 -7 -2 -12 -9 -12 -16 0 -17 35 -48 43 -39 4 3 7 1 7 -5 0 -17
-15 -15 -31 4 -17 20 -69 47 -77 39 -4 -3 0 -11 8 -16 13 -9 13 -10 0 -6 -29
8 -17 32 15 29 29 -3 29 -3 10 18 -12 14 -22 17 -29 10 -16 -16 -30 -12 -15 6
7 8 21 13 31 11 10 -3 18 -1 18 5 0 6 -18 8 -47 4 -45 -6 -47 -6 -23 8 35 20
58 19 72 -3z m-1102 0 c0 -5 -7 -11 -14 -14 -10 -4 -13 -1 -9 9 6 15 23 19 23
5z m920 2 c0 -5 -5 -15 -10 -23 -7 -12 -9 -10 -7 8 1 19 17 33 17 15z m-748
-25 c-7 -7 -12 -8 -12 -2 0 6 3 14 7 17 3 4 9 5 12 2 2 -3 -1 -11 -7 -17z
m640 0 c-7 -7 -12 -8 -12 -2 0 6 3 14 7 17 3 4 9 5 12 2 2 -3 -1 -11 -7 -17z
m152 16 c14 -5 13 -9 -5 -25 -26 -22 -26 -22 -35 -7 -4 6 -3 8 3 5 6 -4 16 0
22 7 10 11 8 15 -6 19 -10 3 -13 5 -6 6 6 0 19 -2 27 -5z m-174 -8 c0 -3 -4
-8 -10 -11 -5 -3 -10 -1 -10 4 0 6 5 11 10 11 6 0 10 -2 10 -4z m614 -38 c-2
-3 7 -15 21 -26 13 -11 22 -22 18 -25 -3 -4 0 -15 8 -24 10 -14 8 -13 -10 2
-13 11 -27 30 -32 43 -6 15 -14 21 -21 16 -7 -4 -10 -4 -6 0 4 5 2 20 -3 35
-10 26 -10 26 9 6 11 -11 18 -23 16 -27z m-559 12 c3 -5 1 -10 -4 -10 -6 0
-11 5 -11 10 0 6 2 10 4 10 3 0 8 -4 11 -10z m165 -11 c17 -30 6 -34 -14 -4
-9 14 -12 25 -7 25 6 0 15 -9 21 -21z m-128 -18 c-3 -23 -7 -27 -16 -18 -10 8
-9 15 3 29 8 10 16 18 16 18 1 0 0 -13 -3 -29z m908 25 c0 -2 -7 -7 -16 -10
-8 -3 -12 -2 -9 4 6 10 25 14 25 6z m-620 -16 c0 -5 8 -10 18 -11 11 -1 8 -4
-8 -8 -27 -9 -46 1 -36 18 9 14 26 14 26 1z m-335 -18 c-3 -3 -11 0 -18 7 -9
10 -8 11 6 5 10 -3 15 -9 12 -12z m95 -8 c0 -8 -4 -14 -10 -14 -5 0 -10 -5
-10 -11 0 -6 8 -8 19 -4 11 3 22 1 26 -5 4 -6 1 -11 -6 -9 -28 3 -38 -2 -44
-22 -6 -17 -9 -19 -16 -8 -5 8 -9 10 -9 6 0 -5 -5 -5 -10 -2 -6 4 -8 11 -4 16
4 6 10 6 19 -1 9 -8 14 -6 19 5 3 8 0 15 -6 15 -7 0 -7 4 1 13 7 9 7 17 1 23
-6 6 -3 10 10 11 11 1 20 -4 20 -13z m-1052 -23 c-7 -12 -17 -21 -22 -21 -4 0
-3 7 4 15 7 8 9 15 4 15 -5 0 -2 4 6 10 20 13 24 6 8 -19z m1507 9 c10 -11 16
-20 13 -20 -3 0 -13 9 -23 20 -10 11 -16 20 -13 20 3 0 13 -9 23 -20z m-1305
0 c0 -5 -4 -10 -10 -10 -5 0 -10 5 -10 10 0 6 5 10 10 10 6 0 10 -4 10 -10z
m727 -6 c-3 -3 -12 -4 -19 -1 -8 3 -5 6 6 6 11 1 17 -2 13 -5z m180 0 c-3 -3
-12 -4 -19 -1 -8 3 -5 6 6 6 11 1 17 -2 13 -5z m-135 -11 c-6 -2 -10 -9 -7
-14 4 -5 -1 -6 -10 -2 -13 5 -14 7 -3 14 7 5 18 8 23 8 6 0 4 -3 -3 -6z m162
-11 c2 -4 -4 -8 -14 -8 -10 0 -16 4 -14 8 3 4 9 8 14 8 5 0 11 -4 14 -8z m571
-10 c-3 -3 -11 0 -18 7 -9 10 -8 11 6 5 10 -3 15 -9 12 -12z m-469 -47 c10
-19 22 -35 26 -35 4 0 5 -7 2 -15 -7 -18 -24 -10 -24 11 0 8 -12 33 -27 57
-14 23 -20 36 -11 30 8 -7 23 -29 34 -48z m1374 19 c0 -24 -17 -15 -22 11 -4
20 -3 23 8 14 8 -6 14 -18 14 -25z m42 -2 c3 -9 -1 -35 -8 -57 -13 -43 -14
-39 -18 42 -2 41 0 51 9 43 7 -6 15 -18 17 -28z m-1802 14 c0 -2 -7 -9 -15
-16 -13 -11 -14 -10 -9 4 5 14 24 23 24 12z m285 -6 c4 -6 11 -8 16 -5 5 4 9
2 9 -3 0 -6 9 -8 19 -5 13 3 23 -2 30 -16 7 -12 8 -21 4 -21 -4 0 -2 -4 6 -9
9 -6 5 -8 -13 -8 -15 0 -29 3 -32 8 -3 5 1 6 8 4 9 -4 14 2 14 13 0 15 -7 19
-31 18 -16 0 -31 4 -32 9 -1 6 -12 13 -25 17 -23 6 -23 6 -1 7 12 1 25 -4 28
-9z m515 -11 c0 -6 9 -9 20 -6 11 3 23 1 26 -4 6 -10 -20 -12 -53 -3 -26 7
-31 24 -8 24 8 0 15 -5 15 -11z m-590 -9 c0 -5 -5 -10 -11 -10 -5 0 -7 5 -4
10 3 6 8 10 11 10 2 0 4 -4 4 -10z m-48 -18 c3 -11 0 -19 -8 -19 -16 0 -16 0
-8 21 8 21 11 20 16 -2z m608 -2 c14 -11 21 -20 17 -20 -5 0 -20 9 -34 20 -14
11 -22 20 -17 20 5 0 20 -9 34 -20z m187 14 c-3 -3 -12 -4 -19 -1 -8 3 -5 6 6
6 11 1 17 -2 13 -5z m-1847 -19 c-7 -8 -18 -15 -24 -15 -6 0 -2 7 8 15 25 19
32 19 16 0z m2630 11 c0 -3 -4 -8 -10 -11 -5 -3 -10 -1 -10 4 0 6 5 11 10 11
6 0 10 -2 10 -4z m-2503 -40 c-3 -8 -1 -17 6 -20 7 -2 5 -5 -4 -5 -20 -1 -33
26 -16 33 19 7 19 7 14 -8z m126 -1 c-3 -9 -8 -14 -10 -11 -3 3 -2 9 2 15 9
16 15 13 8 -4z m707 0 c0 -2 -6 -5 -13 -8 -8 -3 -14 1 -14 8 0 7 6 11 14 8 7
-3 13 -6 13 -8z m251 -2 c13 -16 12 -17 -3 -4 -17 13 -22 21 -14 21 2 0 10 -8
17 -17z m604 7 c3 -5 -1 -10 -9 -10 -9 0 -16 5 -16 10 0 6 4 10 9 10 6 0 13
-4 16 -10z m-1194 -26 c39 -24 54 -64 24 -64 -8 0 -15 -4 -15 -10 0 -5 6 -10
13 -10 8 0 14 -7 14 -15 0 -16 -4 -15 -75 38 -29 21 -62 39 -72 40 -24 2 -25
5 -5 27 22 25 72 22 116 -6z m1159 15 c0 -4 14 -9 32 -13 17 -3 29 -8 26 -11
-4 -5 -139 22 -146 29 -1 2 18 2 43 2 25 -1 45 -4 45 -7z m-510 -9 c13 -8 13
-10 -2 -10 -9 0 -20 5 -23 10 -8 13 5 13 25 0z m385 0 c3 -6 -1 -7 -9 -4 -18
7 -21 14 -7 14 6 0 13 -4 16 -10z m-615 -22 c0 -6 -6 -5 -15 2 -8 7 -15 14
-15 16 0 2 7 1 15 -2 8 -4 15 -11 15 -16z m-115 2 c3 -5 1 -10 -4 -10 -6 0
-11 5 -11 10 0 6 2 10 4 10 3 0 8 -4 11 -10z m280 0 c3 -5 2 -10 -4 -10 -5 0
-13 5 -16 10 -3 6 -2 10 4 10 5 0 13 -4 16 -10z m-1064 -23 c-6 -6 -7 -16 -1
-28 11 -19 -2 -35 -19 -24 -6 3 -14 -3 -20 -12 -9 -16 -10 -16 -11 -1 0 9 9
19 19 23 16 5 18 11 11 34 -7 25 -6 28 12 23 13 -3 16 -8 9 -15z m49 20 c0 -2
-10 -12 -22 -23 l-23 -19 19 23 c18 21 26 27 26 19z m1565 -7 c3 -5 1 -10 -4
-10 -6 0 -11 5 -11 10 0 6 2 10 4 10 3 0 8 -4 11 -10z m-730 -10 c3 -5 1 -10
-4 -10 -6 0 -11 5 -11 10 0 6 2 10 4 10 3 0 8 -4 11 -10z m1655 0 c0 -5 -7
-10 -16 -10 -8 0 -12 5 -9 10 3 6 10 10 16 10 5 0 9 -4 9 -10z m-1730 -10 c0
-5 -5 -10 -11 -10 -5 0 -7 5 -4 10 3 6 8 10 11 10 2 0 4 -4 4 -10z m487 -10
c-1 -11 -5 -20 -9 -20 -4 0 -8 9 -8 20 0 11 4 20 9 20 6 0 9 -9 8 -20z m1203
-8 c0 -15 -2 -15 -10 -2 -13 20 -13 33 0 25 6 -3 10 -14 10 -23z m-1076 -11
c-2 -3 -12 3 -22 13 -16 17 -16 18 5 5 12 -7 20 -15 17 -18z m-1489 9 c-3 -5
-12 -10 -18 -10 -23 -1 -57 -38 -51 -54 5 -12 2 -15 -10 -10 -14 5 -16 2 -10
-21 5 -21 4 -27 -7 -23 -7 2 -14 15 -14 29 0 18 -5 23 -19 21 -17 -3 -18 -2
-7 12 10 12 17 13 26 6 10 -8 20 -4 39 15 14 14 22 25 18 26 -7 1 36 16 51 18
5 1 5 -3 2 -9z m920 -18 c-3 -3 -11 0 -18 7 -9 10 -8 11 6 5 10 -3 15 -9 12
-12z m65 2 c0 -8 -5 -12 -10 -9 -6 4 -8 11 -5 16 9 14 15 11 15 -7z m28 -9
c-3 -3 -9 2 -12 12 -6 14 -5 15 5 6 7 -7 10 -15 7 -18z m1473 -3 c-12 -22 -41
-48 -41 -36 0 8 40 54 47 54 2 0 -1 -8 -6 -18z m137 1 c2 -7 -3 -13 -12 -13
-9 0 -16 -4 -16 -10 0 -5 -4 -10 -10 -10 -11 0 -14 33 -3 44 10 10 36 3 41
-11z m-1547 -10 c13 -16 12 -17 -3 -4 -17 13 -22 21 -14 21 2 0 10 -8 17 -17z
m869 -42 c0 -6 -5 -11 -11 -11 -6 0 -8 -9 -3 -22 6 -21 5 -22 -11 -8 -17 14
-18 13 -12 -12 6 -21 3 -28 -12 -33 -11 -3 -18 -12 -15 -19 3 -7 -2 -16 -10
-19 -9 -4 -16 -13 -16 -22 0 -8 -7 -15 -15 -15 -8 0 -15 7 -15 15 0 8 4 15 9
15 5 0 15 16 22 35 7 19 15 32 18 30 11 -12 40 71 35 100 l-6 30 21 -27 c11
-14 21 -31 21 -37z m-820 39 c0 -5 -2 -10 -4 -10 -3 0 -8 5 -11 10 -3 6 -1 10
4 10 6 0 11 -4 11 -10z m1196 -4 c14 -14 11 -91 -5 -112 -11 -16 -51 -35 -51
-24 0 5 5 10 11 10 6 0 8 7 5 16 -3 8 1 26 10 40 10 14 14 36 12 54 -5 34 -3
36 18 16z m-2331 -15 c-3 -6 -11 -11 -17 -11 -6 0 -6 6 2 15 14 17 26 13 15
-4z m65 10 c0 -6 -4 -13 -10 -16 -5 -3 -10 1 -10 9 0 9 5 16 10 16 6 0 10 -4
10 -9z m2405 -55 c-38 -46 -55 -57 -55 -33 0 12 82 89 88 82 3 -2 -13 -24 -33
-49z m-2404 -3 c-12 -20 -14 -14 -5 12 4 9 9 14 11 11 3 -2 0 -13 -6 -23z
m1594 17 c-3 -5 -14 -10 -23 -9 -14 0 -13 2 3 9 27 11 27 11 20 0z m-508 -25
c0 -8 -4 -12 -9 -9 -4 3 -8 9 -8 15 0 5 4 9 8 9 5 0 9 -7 9 -15z m138 -65 c5
-18 4 -22 -4 -14 -6 6 -14 21 -16 34 -2 13 -9 28 -15 34 -5 5 -10 15 -10 21 0
15 36 -45 45 -75z m1211 35 c-11 -8 -24 -15 -30 -15 -5 0 -1 7 10 15 10 8 24
14 29 14 6 0 1 -6 -9 -14z m-1043 -16 c4 -16 3 -18 -9 -8 -7 6 -11 15 -8 20 8
13 11 11 17 -12z m94 15 c-3 -3 -12 -4 -19 -1 -8 3 -5 6 6 6 11 1 17 -2 13 -5z
m-191 -46 l19 -21 -27 18 c-29 18 -34 25 -20 25 5 0 17 -10 28 -22z m88 -4 c3
-8 2 -12 -4 -9 -6 3 -10 10 -10 16 0 14 7 11 14 -7z m-1354 -48 c0 -18 -17 8
-24 34 l-7 25 15 -25 c9 -14 15 -29 16 -34z m1430 44 c15 -10 10 -12 -25 -12
-30 0 -36 2 -30 12 8 13 35 13 55 0z m-223 -32 c-3 -8 -6 -5 -6 6 -1 11 2 17
5 13 3 -3 4 -12 1 -19z m244 -41 c8 -2 2 -3 -13 -1 -31 4 -33 1 -18 -27 8 -14
7 -19 -2 -19 -6 0 -3 -7 8 -16 18 -15 18 -15 -3 -4 -12 5 -25 15 -29 22 -4 7
-3 8 4 4 7 -4 12 -1 12 9 0 9 -7 16 -17 14 -29 -2 -43 0 -43 10 0 4 11 6 24 4
13 -3 27 0 30 6 4 6 1 11 -7 11 -8 0 -17 7 -20 15 -5 11 1 10 27 -4 18 -11 39
-21 47 -24z m4 25 c-3 -3 -11 0 -18 7 -9 10 -8 11 6 5 10 -3 15 -9 12 -12z
m166 1 c13 -16 12 -17 -3 -4 -10 7 -18 15 -18 17 0 8 8 3 21 -13z m-1762 -23
c-11 -30 -29 -42 -25 -16 2 13 25 46 32 46 1 0 -2 -13 -7 -30z m1894 6 c4 -9
-2 -17 -14 -21 -22 -7 -42 5 -21 12 6 3 10 9 6 14 -3 5 1 9 9 9 8 0 17 -7 20
-14z m-1722 -23 c13 -16 12 -17 -3 -4 -10 7 -18 15 -18 17 0 8 8 3 21 -13z
m1344 -33 c3 -6 -1 -7 -9 -4 -18 7 -21 14 -7 14 6 0 13 -4 16 -10z m276 -37
c-12 -20 -14 -14 -5 12 4 9 9 14 11 11 3 -2 0 -13 -6 -23z m-405 -29 c3 -16 2
-26 -1 -23 -3 4 -8 19 -11 35 -3 16 -2 26 1 23 3 -4 8 -19 11 -35z m394 2 c0
-2 -7 -9 -15 -16 -13 -11 -14 -10 -9 4 5 14 24 23 24 12z m-425 -16 c3 -6 -1
-7 -9 -4 -18 7 -21 14 -7 14 6 0 13 -4 16 -10z m120 -10 c10 -11 16 -20 13
-20 -3 0 -13 9 -23 20 -10 11 -16 20 -13 20 3 0 13 -9 23 -20z m-341 -16 c3
-8 2 -12 -4 -9 -6 3 -10 10 -10 16 0 14 7 11 14 -7z m104 -20 c5 3 12 0 15 -7
3 -8 -3 -13 -14 -13 -11 0 -19 4 -19 8 0 4 -8 4 -17 1 -15 -6 -16 -5 -3 9 9
10 17 12 21 6 4 -6 11 -8 17 -4z m57 -24 c3 -5 1 -10 -4 -10 -6 0 -11 5 -11
10 0 6 2 10 4 10 3 0 8 -4 11 -10z m-555 -25 c0 4 7 2 15 -5 8 -6 19 -9 25 -5
5 3 10 1 10 -6 0 -8 5 -7 17 2 13 11 15 11 9 1 -6 -10 0 -13 25 -10 25 2 33
-1 31 -11 -2 -8 3 -11 13 -8 8 4 15 2 15 -4 0 -6 7 -9 15 -5 12 4 13 2 6 -13
-6 -11 -22 -19 -38 -19 -39 0 -125 43 -159 81 -17 18 -19 24 -6 13 12 -11 22
-16 22 -11z m230 -27 c0 -4 12 -6 28 -4 15 1 32 -2 39 -6 7 -6 26 -5 47 1 20
5 38 6 41 1 3 -5 12 -7 20 -3 9 3 15 -1 15 -11 0 -12 -5 -14 -25 -6 -14 5 -25
6 -25 1 0 -11 -60 -12 -80 -1 -11 6 -21 5 -28 -2 -8 -8 -12 -9 -12 -1 0 17
-32 25 -43 11 -6 -9 -7 -7 -3 6 4 10 1 25 -6 34 -12 14 -11 14 10 1 12 -8 22
-17 22 -21z m227 -3 c0 -8 -4 -15 -8 -15 -11 0 -20 16 -12 24 11 11 20 7 20
-9z m1093 -71 c0 -8 -5 -12 -10 -9 -6 4 -8 11 -5 16 9 14 15 11 15 -7z m-1570
-88 c0 -3 -4 -8 -10 -11 -5 -3 -10 -1 -10 4 0 6 5 11 10 11 6 0 10 -2 10 -4z
m1930 -91 c-4 -22 -8 -35 -9 -29 -2 21 -35 26 -48 8 -11 -16 -13 -13 -13 18 0
35 20 56 41 42 5 -3 12 2 16 11 11 31 22 -7 13 -50z m-1974 33 c5 -8 1 -9 -12
-5 -12 5 -8 -2 11 -18 l30 -25 -33 0 c-25 0 -35 5 -39 20 -3 11 -10 20 -17 20
-18 0 17 20 36 20 9 0 20 -5 24 -12z m1868 -44 c3 -8 2 -12 -4 -9 -6 3 -10 10
-10 16 0 14 7 11 14 -7z"/>
<path d="M2856 2106 c3 -9 11 -16 16 -16 13 0 5 23 -10 28 -7 2 -10 -2 -6 -12z"/>
<path d="M1936 1735 c-4 -13 -2 -14 14 -5 23 13 26 20 6 20 -8 0 -16 -7 -20
-15z"/>
<path d="M2720 2740 c-8 -5 -11 -13 -6 -17 10 -10 56 -11 56 -1 0 4 -8 8 -17
8 -15 0 -16 2 -3 10 13 9 13 10 0 10 -8 0 -22 -4 -30 -10z"/>
<path d="M2778 2743 c7 -3 16 -2 19 1 4 3 -2 6 -13 5 -11 0 -14 -3 -6 -6z"/>
<path d="M2812 2708 c-24 -12 -25 -29 -2 -36 7 -3 10 0 7 5 -4 6 11 6 40 -1
35 -8 48 -7 51 2 2 7 10 12 18 12 27 0 14 18 -17 24 -43 8 -70 7 -97 -6z"/>
<path d="M2718 2693 c6 -2 18 -2 25 0 6 3 1 5 -13 5 -14 0 -19 -2 -12 -5z"/>
<path d="M2955 2691 c6 -5 34 -12 64 -14 36 -4 50 -2 43 5 -6 6 -34 12 -64 15
-33 2 -49 0 -43 -6z"/>
<path d="M2817 2663 c-10 -10 -8 -23 4 -23 5 0 7 5 4 10 -3 6 -1 10 4 10 6 0
11 -4 11 -9 0 -5 9 -13 20 -16 30 -10 24 -26 -7 -20 -25 5 -26 4 -6 -4 16 -7
30 -6 50 4 l27 14 -28 11 c-15 5 -32 10 -37 10 -5 0 -9 5 -9 10 0 11 -23 14
-33 3z"/>
<path d="M3000 2634 c0 -10 7 -11 30 -3 17 6 30 12 30 13 0 2 -13 3 -30 3 -18
0 -30 -6 -30 -13z"/>
<path d="M2316 2601 c-3 -5 6 -8 20 -8 19 0 22 2 13 8 -18 11 -26 11 -33 0z"/>
<path d="M2450 2579 c0 -5 5 -7 10 -4 6 3 10 8 10 11 0 2 -4 4 -10 4 -5 0 -10
-5 -10 -11z"/>
<path d="M2850 2585 c0 -7 30 -13 34 -7 3 4 -4 9 -15 9 -10 1 -19 0 -19 -2z"/>
<path d="M2924 2565 c36 -19 45 -19 20 0 -10 8 -26 14 -34 15 -8 0 -2 -7 14
-15z"/>
<path d="M3021 2576 c2 -2 18 -6 34 -10 22 -5 26 -4 15 4 -14 9 -59 15 -49 6z"/>
<path d="M2987 2549 c7 -7 15 -10 18 -7 3 3 -2 9 -12 12 -14 6 -15 5 -6 -5z"/>
<path d="M2976 2518 c3 -4 11 -8 19 -8 7 0 15 -4 17 -9 2 -5 17 -12 33 -15
l30 -6 -28 11 c-15 6 -25 14 -22 19 3 4 -8 10 -25 12 -16 2 -27 1 -24 -4z"/>
<path d="M3059 2517 c5 -5 21 -7 37 -5 27 3 26 4 -8 9 -22 3 -34 1 -29 -4z"/>
<path d="M3138 2523 c7 -3 16 -2 19 1 4 3 -2 6 -13 5 -11 0 -14 -3 -6 -6z"/>
<path d="M2920 2500 c0 -5 10 -12 23 -16 21 -7 21 -7 2 -16 -15 -6 -13 -7 9
-3 19 4 32 1 37 -7 6 -8 9 -9 9 -2 0 14 -15 26 -52 42 -16 6 -28 7 -28 2z"/>
<path d="M1050 2478 c-34 -13 -42 -29 -24 -55 13 -21 13 -23 -6 -23 -11 0 -20
5 -20 10 0 6 -9 20 -20 32 -11 12 -20 16 -20 9 0 -7 -4 -10 -9 -7 -5 3 -11 -1
-15 -9 -6 -16 14 -17 25 -1 4 5 12 0 17 -11 10 -19 8 -19 -35 -13 -47 7 -83 3
-83 -9 0 -4 -14 -5 -31 -3 -22 3 -27 7 -18 13 10 6 10 9 2 9 -6 0 -15 -4 -18
-10 -3 -5 -15 -10 -26 -10 -10 0 -19 -4 -19 -9 0 -4 15 -7 33 -5 24 3 39 -2
51 -15 18 -19 17 -20 -13 -16 -20 3 -31 0 -31 -8 0 -7 -4 -6 -10 3 -8 12 -10
12 -16 -3 -3 -9 -14 -17 -25 -17 -20 0 -26 -22 -33 -120 -3 -39 -2 -49 5 -35
7 16 8 13 3 -10 -17 -89 -17 -107 6 -137 13 -17 19 -28 13 -25 -5 3 -9 -3 -9
-13 0 -12 6 -16 16 -12 11 4 12 2 4 -7 -8 -9 -7 -23 3 -54 17 -48 26 -61 23
-32 -4 34 0 46 10 40 6 -4 8 -10 5 -15 -3 -4 -2 -15 1 -24 5 -14 8 -14 30 0
13 9 21 20 18 26 -3 5 -11 5 -19 -2 -11 -9 -12 -7 -8 9 3 13 10 18 21 14 12
-5 14 -2 9 11 -4 10 -3 15 4 11 5 -4 7 -14 5 -23 -3 -10 -2 -23 3 -31 7 -11
10 -9 16 8 3 11 14 21 23 22 11 0 12 2 4 6 -8 3 -2 14 18 31 16 15 30 32 30
38 0 6 9 23 21 38 11 14 17 26 12 26 -12 0 -40 -34 -48 -59 -5 -17 -9 -18 -20
-8 -12 10 -7 18 26 50 22 20 41 37 42 37 1 0 35 31 75 68 48 46 72 76 72 92 0
18 3 20 14 11 10 -9 16 -9 21 -1 4 6 -5 20 -19 31 -15 11 -23 26 -19 34 3 8 0
15 -6 15 -6 0 -11 -6 -12 -12 0 -7 -5 -2 -10 11 -7 17 -6 27 2 31 8 5 8 10 1
14 -6 4 -9 13 -5 21 3 8 0 15 -7 15 -7 0 -10 7 -7 15 8 19 -12 30 -26 15 -9
-9 -8 -14 6 -24 13 -11 15 -19 8 -37 l-10 -24 0 26 c-1 14 -6 30 -11 35 -17
17 0 44 26 42 13 -1 24 -6 24 -10 0 -4 5 -8 10 -8 16 0 11 19 -7 28 -11 6 -28
6 -43 0z m-136 -193 c3 -8 2 -14 -2 -13 -4 1 -18 -4 -30 -11 -32 -17 -38 -7
-13 18 25 25 37 26 45 6z m42 -7 c47 -40 66 -68 45 -68 -5 0 -11 9 -14 20 -3
11 -11 20 -17 20 -10 0 -10 -3 0 -15 9 -11 9 -15 1 -15 -6 0 -14 8 -17 18 -3
9 -10 25 -15 35 -11 20 -4 22 17 5z m-197 -47 c-6 -16 -8 -54 -6 -85 4 -60 3
-63 -19 -42 -17 18 -18 27 -2 24 8 -2 11 10 9 37 -1 22 2 53 8 68 14 36 23 35
10 -2z m31 -221 c0 -5 -4 -10 -10 -10 -5 0 -10 5 -10 10 0 6 5 10 10 10 6 0
10 -4 10 -10z m100 -19 c7 -14 7 -22 -2 -27 -7 -4 -8 -3 -4 4 4 7 2 12 -3 12
-6 0 -11 7 -11 15 0 20 7 19 20 -4z m-30 -16 c0 -8 -2 -15 -4 -15 -2 0 -6 7
-10 15 -3 8 -1 15 4 15 6 0 10 -7 10 -15z m-70 -24 c0 -11 -31 -24 -39 -16 -3
3 1 10 9 15 19 12 30 12 30 1z"/>
<path d="M997 2463 c-4 -3 -7 -11 -7 -17 0 -6 5 -5 12 2 6 6 9 14 7 17 -3 3
-9 2 -12 -2z"/>
<path d="M2100 2450 c0 -5 5 -10 10 -10 6 0 10 5 10 10 0 6 -4 10 -10 10 -5 0
-10 -4 -10 -10z"/>
<path d="M2530 2450 c-9 -6 -10 -10 -3 -10 6 0 15 5 18 10 8 12 4 12 -15 0z"/>
<path d="M3085 2450 c-3 -5 1 -10 9 -10 9 0 16 5 16 10 0 6 -4 10 -9 10 -6 0
-13 -4 -16 -10z"/>
<path d="M905 2440 c3 -5 8 -10 11 -10 2 0 4 5 4 10 0 6 -5 10 -11 10 -5 0 -7
-4 -4 -10z"/>
<path d="M2495 2440 c-3 -5 -1 -10 4 -10 6 0 11 5 11 10 0 6 -2 10 -4 10 -3 0
-8 -4 -11 -10z"/>
<path d="M1645 2430 c3 -5 8 -10 11 -10 2 0 4 5 4 10 0 6 -5 10 -11 10 -5 0
-7 -4 -4 -10z"/>
<path d="M840 2420 c0 -5 5 -10 10 -10 6 0 10 5 10 10 0 6 -4 10 -10 10 -5 0
-10 -4 -10 -10z"/>
<path d="M1575 2420 c-3 -5 -1 -10 4 -10 6 0 11 5 11 10 0 6 -2 10 -4 10 -3 0
-8 -4 -11 -10z"/>
<path d="M2638 2423 c7 -3 16 -2 19 1 4 3 -2 6 -13 5 -11 0 -14 -3 -6 -6z"/>
<path d="M3100 2426 c0 -2 7 -7 16 -10 8 -3 12 -2 9 4 -6 10 -25 14 -25 6z"/>
<path d="M3143 2423 c4 -3 -2 -16 -13 -28 l-20 -22 20 -18 c11 -10 30 -19 40
-20 28 -2 25 4 -7 16 -22 8 -24 12 -13 19 12 8 11 10 -4 10 -18 0 -18 2 4 25
21 22 22 25 5 25 -10 0 -15 -3 -12 -7z"/>
<path d="M1485 2398 c-11 -13 -19 -26 -18 -30 1 -3 -4 -12 -12 -18 -21 -18
-19 -35 3 -19 14 11 15 11 5 0 -6 -7 -9 -20 -6 -28 5 -11 9 -11 27 4 16 14 18
15 8 1 -15 -19 -4 -29 39 -34 16 -2 40 -6 54 -8 17 -3 26 1 30 15 7 20 25 27
25 9 0 -5 -4 -10 -10 -10 -15 0 -12 -17 4 -23 11 -4 14 1 13 21 -2 19 -8 27
-22 28 -38 2 -43 4 -49 20 -3 8 -2 13 3 9 5 -3 23 8 39 25 35 34 27 40 -12 9
-25 -20 -26 -20 -26 -1 0 29 -8 31 -48 12 -36 -18 -58 -17 -46 1 3 5 10 6 16
3 7 -5 9 -1 5 9 -4 10 0 17 11 20 13 4 14 5 2 6 -9 0 -24 -9 -35 -21z m51 -43
c-1 -8 -6 -18 -11 -22 -4 -5 -5 -2 0 6 6 11 4 13 -11 8 -18 -7 -18 -7 0 8 24
18 25 18 22 0z"/>
<path d="M2306 2405 c-3 -8 -1 -15 3 -15 5 0 11 7 15 15 3 8 1 15 -3 15 -5 0
-11 -7 -15 -15z"/>
<path d="M1443 2393 c0 -9 4 -10 14 -2 7 6 13 12 13 14 0 1 -6 2 -13 2 -8 0
-14 -6 -14 -14z"/>
<path d="M2540 2400 c-9 -6 -10 -10 -3 -10 6 0 15 5 18 10 8 12 4 12 -15 0z"/>
<path d="M1360 2368 c-15 -21 -17 -28 -6 -19 16 13 41 51 33 51 -2 0 -14 -15
-27 -32z"/>
<path d="M3168 2393 c6 -2 18 -2 25 0 6 3 1 5 -13 5 -14 0 -19 -2 -12 -5z"/>
<path d="M2305 2370 c3 -5 8 -10 11 -10 2 0 4 5 4 10 0 6 -5 10 -11 10 -5 0
-7 -4 -4 -10z"/>
<path d="M2440 2369 c0 -5 5 -7 10 -4 6 3 10 8 10 11 0 2 -4 4 -10 4 -5 0 -10
-5 -10 -11z"/>
<path d="M3080 2370 c0 -5 5 -10 11 -10 5 0 7 5 4 10 -3 6 -8 10 -11 10 -2 0
-4 -4 -4 -10z"/>
<path d="M1175 2360 c-3 -5 -2 -10 4 -10 5 0 13 5 16 10 3 6 2 10 -4 10 -5 0
-13 -4 -16 -10z"/>
<path d="M1396 2354 c-4 -9 -4 -19 -1 -22 2 -3 7 3 11 12 4 9 4 19 1 22 -2 3
-7 -3 -11 -12z"/>
<path d="M1419 2347 c-16 -28 -5 -30 19 -4 18 19 19 24 7 24 -9 0 -21 -9 -26
-20z"/>
<path d="M1635 2350 c-4 -6 -10 -8 -15 -5 -4 3 -11 -2 -14 -11 -9 -23 -8 -24
24 -8 17 9 30 20 30 25 0 12 -17 12 -25 -1z"/>
<path d="M1133 2332 c-7 -12 -7 -20 1 -27 21 -19 42 -13 44 12 2 22 1 23 -14
8 -9 -9 -19 -13 -22 -10 -4 3 0 10 7 14 7 5 9 11 4 14 -5 3 -14 -2 -20 -11z"/>
<path d="M3117 2326 c-4 -10 -1 -13 8 -9 8 3 12 9 9 14 -7 12 -11 11 -17 -5z"/>
<path d="M1430 2311 c0 -5 5 -13 10 -16 6 -3 10 -2 10 4 0 5 -4 13 -10 16 -5
3 -10 2 -10 -4z"/>
<path d="M3145 2290 c3 -5 11 -10 16 -10 6 0 7 5 4 10 -3 6 -11 10 -16 10 -6
0 -7 -4 -4 -10z"/>
<path d="M2890 2270 c0 -5 5 -10 10 -10 6 0 10 5 10 10 0 6 -4 10 -10 10 -5 0
-10 -4 -10 -10z"/>
<path d="M3188 2203 c7 -3 16 -2 19 1 4 3 -2 6 -13 5 -11 0 -14 -3 -6 -6z"/>
<path d="M1925 2110 c-3 -6 1 -7 9 -4 18 7 21 14 7 14 -6 0 -13 -4 -16 -10z"/>
<path d="M3605 2090 c4 -6 11 -8 16 -5 14 9 11 15 -7 15 -8 0 -12 -5 -9 -10z"/>
<path d="M1926 2067 c3 -10 9 -15 12 -12 3 3 0 11 -7 18 -10 9 -11 8 -5 -6z"/>
<path d="M1960 2070 c-12 -7 -11 -10 5 -16 11 -4 25 -9 30 -11 6 -3 2 2 -7 10
-10 8 -15 17 -11 20 9 10 0 8 -17 -3z"/>
<path d="M3490 2046 c0 -9 5 -16 10 -16 6 0 10 4 10 9 0 6 -4 13 -10 16 -5 3
-10 -1 -10 -9z"/>
<path d="M2020 2040 c-13 -8 -12 -10 3 -10 9 0 17 5 17 10 0 12 -1 12 -20 0z"/>
<path d="M1955 2030 c-3 -5 -1 -10 4 -10 6 0 11 -7 11 -15 0 -8 4 -15 10 -15
5 0 7 -6 4 -13 -3 -8 2 -14 10 -14 8 0 13 4 10 9 -3 4 1 8 8 8 9 0 9 3 -2 10
-12 8 -12 10 5 10 16 0 13 4 -13 20 -38 23 -39 23 -47 10z"/>
<path d="M2065 2000 c3 -5 8 -10 11 -10 2 0 4 5 4 10 0 6 -5 10 -11 10 -5 0
-7 -4 -4 -10z"/>
<path d="M3610 1989 c0 -5 5 -7 10 -4 6 3 10 8 10 11 0 2 -4 4 -10 4 -5 0 -10
-5 -10 -11z"/>
<path d="M2040 1986 c0 -2 7 -7 16 -10 8 -3 12 -2 9 4 -6 10 -25 14 -25 6z"/>
<path d="M3672 1955 c0 -16 2 -22 5 -12 2 9 2 23 0 30 -3 6 -5 -1 -5 -18z"/>
<path d="M3625 1951 c-7 -24 44 -211 59 -211 2 0 2 9 -1 20 -3 11 0 20 6 20 6
0 11 -9 11 -20 0 -11 5 -20 11 -20 6 0 8 9 4 20 -4 13 -1 22 10 26 12 5 13 9
4 20 -6 8 -17 14 -25 14 -7 0 -16 9 -19 20 -4 11 -10 18 -15 15 -14 -9 -23 35
-10 50 9 11 7 17 -8 26 -11 7 -18 19 -15 26 3 7 3 13 0 13 -3 0 -8 -9 -12 -19z
m25 -37 c0 -8 -4 -12 -10 -9 -5 3 -10 10 -10 16 0 5 5 9 10 9 6 0 10 -7 10
-16z"/>
<path d="M2020 1951 c0 -5 9 -13 20 -16 11 -4 18 -10 15 -14 -2 -5 7 -13 21
-20 17 -8 24 -17 20 -27 -4 -10 -1 -14 6 -11 7 2 12 12 10 22 -2 11 1 14 9 9
8 -4 10 -3 5 4 -4 7 -18 12 -32 12 -15 0 -23 4 -19 11 4 6 -2 13 -14 16 -12 3
-21 9 -21 14 0 5 -4 9 -10 9 -5 0 -10 -4 -10 -9z"/>
<path d="M2161 1884 c13 -14 38 -35 54 -47 18 -13 11 -3 -18 26 -50 50 -78 65
-36 21z"/>
<path d="M3137 1896 c-10 -8 -15 -16 -10 -18 4 -3 16 3 26 14 20 21 10 24 -16
4z"/>
<path d="M2190 1896 c0 -2 7 -7 16 -10 8 -3 12 -2 9 4 -6 10 -25 14 -25 6z"/>
<path d="M815 1870 c-3 -5 -2 -10 4 -10 5 0 13 5 16 10 3 6 2 10 -4 10 -5 0
-13 -4 -16 -10z"/>
<path d="M2124 1869 c-9 -16 2 -22 21 -11 15 8 16 10 1 15 -8 3 -18 2 -22 -4z"/>
<path d="M2240 1856 c0 -2 8 -10 18 -17 15 -13 16 -12 3 4 -13 16 -21 21 -21
13z"/>
<path d="M3115 1840 c-3 -6 1 -7 9 -4 18 7 21 14 7 14 -6 0 -13 -4 -16 -10z"/>
<path d="M3080 1826 c0 -2 7 -7 16 -10 8 -3 12 -2 9 4 -6 10 -25 14 -25 6z"/>
<path d="M3612 1780 c0 -42 3 -49 14 -39 8 6 14 24 14 39 0 15 -6 33 -14 39
-11 10 -14 3 -14 -39z"/>
<path d="M2292 1811 c-10 -6 -9 -11 4 -22 16 -12 17 -12 11 3 -3 9 -1 19 6 22
7 2 8 5 2 5 -5 0 -16 -3 -23 -8z"/>
<path d="M850 1795 c-11 -13 -10 -14 4 -9 9 3 16 10 16 15 0 13 -6 11 -20 -6z"/>
<path d="M2339 1798 c7 -10 10 -18 6 -18 -4 0 -2 -7 5 -15 7 -8 8 -15 3 -15
-5 0 -10 -6 -10 -14 0 -8 5 -14 10 -13 5 1 12 -4 14 -11 3 -8 -1 -10 -14 -6
-11 5 -5 -6 17 -30 19 -20 36 -32 38 -26 3 7 10 4 19 -7 10 -12 10 -9 -2 10
-9 16 -25 37 -36 48 -10 10 -19 25 -19 32 0 6 9 1 20 -13 11 -14 20 -19 20
-12 0 7 -14 25 -30 39 -17 13 -28 28 -25 33 3 4 -3 14 -13 21 -15 13 -16 12
-3 -3z m51 -113 c11 -13 10 -14 -4 -9 -9 3 -16 10 -16 15 0 13 6 11 20 -6z"/>
<path d="M3380 1799 c0 -5 5 -7 10 -4 6 3 10 8 10 11 0 2 -4 4 -10 4 -5 0 -10
-5 -10 -11z"/>
<path d="M3122 1791 c-10 -6 -10 -10 2 -21 9 -7 14 -16 11 -20 -3 -5 4 -11 15
-15 28 -9 25 -28 -2 -20 -23 6 -23 6 -2 -7 12 -7 19 -18 17 -25 -3 -7 8 -15
22 -19 20 -5 23 -9 13 -15 -7 -5 -8 -9 -3 -9 16 -1 59 -40 51 -47 -3 -4 -17 3
-29 15 -19 18 -24 19 -24 6 0 -9 11 -20 24 -25 13 -5 23 -14 23 -21 0 -7 9
-19 20 -25 30 -19 38 6 9 29 -16 14 -18 18 -6 14 20 -6 22 5 5 22 -7 7 -8 12
-2 12 5 0 11 11 12 25 1 16 -3 25 -13 25 -8 0 -15 5 -15 10 0 6 6 10 13 10 9
0 9 2 -1 9 -7 4 -12 14 -10 21 2 7 -21 25 -50 39 -29 15 -50 30 -46 34 10 10
-18 9 -34 -2z m113 -71 c3 -5 1 -10 -4 -10 -6 0 -11 5 -11 10 0 6 2 10 4 10 3
0 8 -4 11 -10z"/>
<path d="M2145 1759 c-11 -17 1 -21 15 -4 8 9 8 15 2 15 -6 0 -14 -5 -17 -11z"/>
<path d="M2190 1745 c0 -2 15 -12 33 -20 l32 -16 -24 21 c-22 19 -41 26 -41
15z"/>
<path d="M3657 1730 c3 -14 12 -28 19 -33 7 -4 16 -28 20 -52 4 -27 12 -45 19
-45 7 0 15 -5 17 -11 3 -9 10 -9 27 0 l23 13 -36 26 c-34 24 -48 52 -25 52 5
0 8 -4 5 -8 -2 -4 4 -8 15 -8 19 0 19 1 3 13 -10 7 -22 13 -28 13 -6 0 -23 14
-38 32 -25 30 -27 31 -21 8z"/>
<path d="M837 1713 c-4 -3 -7 -11 -7 -17 0 -6 5 -5 12 2 6 6 9 14 7 17 -3 3
-9 2 -12 -2z"/>
<path d="M1030 1710 c0 -5 5 -10 10 -10 6 0 10 5 10 10 0 6 -4 10 -10 10 -5 0
-10 -4 -10 -10z"/>
<path d="M2207 1705 c3 -8 9 -12 14 -9 12 7 11 11 -5 17 -10 4 -13 1 -9 -8z"/>
<path d="M3095 1700 c-3 -5 1 -10 10 -10 9 0 13 5 10 10 -3 6 -8 10 -10 10 -2
0 -7 -4 -10 -10z"/>
<path d="M2270 1671 c0 -5 7 -11 14 -14 10 -4 13 -1 9 9 -6 15 -23 19 -23 5z"/>
<path d="M2288 1633 c17 -7 15 -23 -3 -23 -8 0 -15 -4 -15 -10 0 -5 4 -10 9
-10 6 0 13 5 16 10 3 6 13 10 21 10 8 0 14 -4 14 -10 0 -5 -8 -10 -17 -10 -15
0 -15 -2 -4 -9 9 -6 19 -5 27 2 11 10 9 16 -12 35 -14 12 -30 22 -37 21 -9 0
-9 -2 1 -6z"/>
<path d="M2248 1623 c7 -3 16 -2 19 1 4 3 -2 6 -13 5 -11 0 -14 -3 -6 -6z"/>
<path d="M3070 1625 c0 -8 29 -12 39 -5 9 5 4 8 -13 8 -14 0 -26 -2 -26 -3z"/>
<path d="M3125 1610 c-16 -6 -13 -8 13 -7 17 0 32 1 32 2 0 8 -28 11 -45 5z"/>
<path d="M3446 1601 c-4 -5 -2 -12 3 -15 5 -4 12 -2 15 3 4 5 2 12 -3 15 -5 4
-12 2 -15 -3z"/>
<path d="M3045 1590 c3 -5 12 -7 20 -3 21 7 19 13 -6 13 -11 0 -18 -4 -14 -10z"/>
<path d="M3082 1579 c-11 -4 -23 -12 -27 -18 -3 -6 -14 -11 -24 -11 -10 0 -24
-6 -30 -14 -10 -12 -6 -13 29 -5 23 5 45 7 51 4 5 -4 9 -2 9 4 0 5 -8 12 -17
14 -14 4 -12 5 5 6 12 0 22 6 22 12 0 5 5 7 10 4 6 -4 8 -11 5 -16 -9 -14 19
-11 40 5 17 12 16 14 -18 18 -20 2 -45 1 -55 -3z"/>
<path d="M2299 1563 c12 -4 12 -6 0 -13 -9 -6 -2 -8 19 -8 34 1 57 18 25 18
-10 0 -27 2 -38 4 -11 2 -14 1 -6 -1z"/>
<path d="M945 1550 c3 -5 8 -10 11 -10 2 0 4 5 4 10 0 6 -5 10 -11 10 -5 0 -7
-4 -4 -10z"/>
<path d="M765 1530 c-3 -5 -2 -10 4 -10 5 0 13 5 16 10 3 6 2 10 -4 10 -5 0
-13 -4 -16 -10z"/>
<path d="M920 1529 c0 -5 5 -7 10 -4 6 3 10 8 10 11 0 2 -4 4 -10 4 -5 0 -10
-5 -10 -11z"/>
<path d="M3765 1530 c-3 -6 1 -7 9 -4 18 7 21 14 7 14 -6 0 -13 -4 -16 -10z"/>
<path d="M2310 1521 c0 -5 14 -11 30 -13 17 -3 27 -1 22 4 -12 12 -52 19 -52
9z"/>
<path d="M3038 1523 c-29 -7 -20 -21 10 -15 32 6 30 3 -23 -33 -29 -20 -33
-25 -15 -20 22 7 23 6 11 -9 -11 -13 -11 -16 0 -16 8 0 -1 -8 -19 -17 -18 -8
-31 -18 -28 -20 2 -3 14 0 25 6 19 11 20 10 11 -14 -14 -38 -12 -48 8 -41 9 3
-1 -10 -23 -29 -22 -19 -35 -35 -29 -35 5 0 15 5 21 11 15 15 47 3 40 -16 -4
-10 -1 -12 10 -8 11 4 14 2 9 -5 -4 -7 -14 -12 -22 -12 -8 0 -13 -4 -10 -9 3
-5 16 -7 29 -5 12 2 6 -2 -13 -9 -37 -15 -43 -30 -13 -34 15 -2 15 -2 -1 5
-19 8 -19 9 2 14 12 4 22 2 22 -4 0 -5 5 -6 12 -2 7 4 8 3 4 -4 -4 -7 3 -17
18 -24 14 -6 26 -16 26 -21 0 -6 3 -7 6 -4 4 4 1 14 -7 24 -12 15 -12 16 5 10
16 -6 17 -5 6 8 -10 12 -10 18 0 30 7 8 13 30 14 47 2 19 7 32 14 31 15 -4 15
10 0 25 -9 9 -9 12 2 12 13 0 13 2 1 9 -20 13 -24 61 -5 61 33 0 0 50 -34 51
-18 1 -21 3 -9 6 11 3 16 11 13 19 -4 9 2 14 17 14 12 0 29 5 37 11 12 9 12
10 -3 5 -11 -3 -24 -3 -29 0 -14 9 -67 12 -90 7z m69 -99 c-3 -3 -12 -4 -19
-1 -8 3 -5 6 6 6 11 1 17 -2 13 -5z"/>
<path d="M2250 1505 c0 -8 4 -15 10 -15 5 0 7 7 4 15 -4 8 -8 15 -10 15 -2 0
-4 -7 -4 -15z"/>
<path d="M3236 1488 c3 -5 10 -6 15 -3 13 9 11 12 -6 12 -8 0 -12 -4 -9 -9z"/>
<path d="M3484 1474 c7 -39 16 -42 16 -6 0 18 -5 32 -10 32 -6 0 -8 -12 -6
-26z"/>
<path d="M2401 1371 c-11 -7 -8 -13 13 -26 15 -10 30 -15 33 -11 4 4 -3 9 -16
13 -13 3 -20 11 -17 19 6 16 6 17 -13 5z"/>
<path d="M3470 1365 c0 -8 2 -15 4 -15 2 0 6 7 10 15 3 8 1 15 -4 15 -6 0 -10
-7 -10 -15z"/>
<path d="M2432 1290 c7 -10 14 -18 15 -16 6 6 -9 36 -18 36 -5 0 -4 -9 3 -20z"/>
<path d="M780 1280 c-9 -6 -10 -10 -3 -10 6 0 15 5 18 10 8 12 4 12 -15 0z"/>
<path d="M1150 1264 c0 -21 -4 -25 -20 -21 -11 3 -20 0 -20 -6 0 -7 -4 -5 -10
3 -7 12 -9 10 -7 -7 1 -16 4 -19 14 -12 7 6 16 8 21 5 5 -3 20 6 32 19 13 14
18 25 11 25 -7 0 -9 5 -6 10 3 6 1 10 -4 10 -6 0 -11 -12 -11 -26z"/>
<path d="M924 1235 c-10 -8 -14 -14 -9 -15 15 0 40 18 34 24 -3 3 -14 -1 -25
-9z"/>
<path d="M730 1215 c-20 -24 -6 -28 15 -5 10 11 13 20 8 20 -6 0 -16 -7 -23
-15z"/>
<path d="M875 1210 c-3 -5 -2 -10 4 -10 5 0 13 5 16 10 3 6 2 10 -4 10 -5 0
-13 -4 -16 -10z"/>
<path d="M905 1199 c-11 -17 1 -21 15 -4 8 9 8 15 2 15 -6 0 -14 -5 -17 -11z"/>
<path d="M736 1169 c-16 -16 -17 -19 -4 -19 18 0 43 26 31 33 -4 2 -17 -4 -27
-14z"/>
<path d="M2946 1171 c-3 -4 -17 -6 -31 -3 -15 2 -25 0 -25 -7 0 -8 18 -10 54
-7 38 3 58 1 66 -8 8 -10 7 -15 -5 -20 -9 -3 -13 -11 -10 -17 5 -6 13 -2 22
11 13 19 13 24 2 35 -18 16 -66 27 -73 16z"/>
<path d="M1056 1162 c-2 -4 -1 -14 5 -22 5 -8 9 -13 10 -10 0 3 2 13 4 23 3
17 -10 24 -19 9z"/>
<path d="M3058 1158 c15 -15 16 -32 2 -23 -5 3 -10 3 -10 -2 1 -12 26 -43 35
-43 4 0 2 7 -6 16 -10 12 -10 17 -1 23 17 10 4 41 -16 41 -12 0 -13 -3 -4 -12z"/>
<path d="M3050 1085 c0 -8 4 -15 10 -15 5 0 7 7 4 15 -4 8 -8 15 -10 15 -2 0
-4 -7 -4 -15z"/>
<path d="M985 1080 c-3 -5 -1 -10 4 -10 6 0 11 5 11 10 0 6 -2 10 -4 10 -3 0
-8 -4 -11 -10z"/>
<path d="M946 843 c-6 -14 -5 -15 5 -6 7 7 10 15 7 18 -3 3 -9 -2 -12 -12z"/>
<path d="M1060 829 c0 -5 5 -7 10 -4 6 3 10 8 10 11 0 2 -4 4 -10 4 -5 0 -10
-5 -10 -11z"/>
<path d="M1032 768 c-16 -16 -15 -31 1 -22 8 5 7 2 -2 -9 -16 -20 -9 -32 13
-24 15 6 18 47 3 47 -4 0 -5 5 -2 10 8 14 2 13 -13 -2z"/>
<path d="M737 763 c-4 -3 -7 -11 -7 -17 0 -6 5 -5 12 2 6 6 9 14 7 17 -3 3 -9
2 -12 -2z"/>
<path d="M820 696 c0 -2 7 -7 16 -10 8 -3 12 -2 9 4 -6 10 -25 14 -25 6z"/>
<path d="M3585 670 c3 -5 8 -10 11 -10 2 0 4 5 4 10 0 6 -5 10 -11 10 -5 0 -7
-4 -4 -10z"/>
<path d="M3930 631 c0 -20 24 -51 40 -51 5 0 12 -10 16 -22 7 -22 8 -21 14 7
7 34 2 57 -11 49 -5 -3 -9 0 -9 6 0 6 -4 9 -9 6 -5 -3 -11 1 -15 9 -8 21 -26
18 -26 -4z"/>
<path d="M3748 635 c-9 -9 3 -54 18 -66 17 -14 17 -13 1 34 -8 20 -16 35 -19
32z"/>
<path d="M995 589 c-4 -6 -5 -12 -2 -15 2 -3 7 2 10 11 7 17 1 20 -8 4z"/>
<path d="M1350 584 c0 -11 40 -47 46 -41 2 2 -7 14 -21 27 -14 13 -25 19 -25
14z"/>
<path d="M3795 560 c-5 -15 8 -60 18 -60 1 0 1 18 -1 40 -5 45 -8 49 -17 20z"/>
<path d="M1410 535 c0 -6 28 -33 53 -54 15 -12 17 -11 14 9 -2 14 -15 27 -35
36 -18 7 -32 11 -32 9z"/>
<path d="M1600 500 c0 -5 5 -10 10 -10 6 0 10 5 10 10 0 6 -4 10 -10 10 -5 0
-10 -4 -10 -10z"/>
<path d="M130 483 c0 -4 5 -15 10 -23 8 -13 10 -13 10 2 0 9 -4 20 -10 23 -5
3 -10 3 -10 -2z"/>
<path d="M3595 480 c3 -5 1 -20 -5 -32 -11 -22 -10 -22 4 -4 18 23 21 46 5 46
-5 0 -7 -4 -4 -10z"/>
<path d="M3870 427 c0 -7 14 -21 30 -32 16 -11 30 -25 30 -31 0 -6 16 -41 35
-78 19 -37 35 -75 35 -84 1 -43 17 -45 54 -7 20 20 36 33 37 28 1 -13 18 31
18 49 1 11 -12 23 -33 32 -45 19 -50 30 -29 62 34 53 14 86 -29 48 -14 -13
-21 -14 -32 -5 -10 8 -16 9 -21 1 -3 -6 -10 -8 -15 -5 -5 3 -10 -3 -12 -12 -3
-15 -9 -13 -36 14 -18 17 -32 26 -32 20z"/>
<path d="M0 303 c0 -55 0 -56 19 -39 13 11 27 15 40 11 25 -8 25 -6 7 29 -13
27 -44 55 -58 56 -5 0 -8 -25 -8 -57z"/>
<path d="M150 284 c0 -8 5 -12 10 -9 6 4 8 11 5 16 -9 14 -15 11 -15 -7z"/>
<path d="M34 245 c26 -19 42 -19 26 0 -7 8 -20 15 -29 15 -13 -1 -13 -3 3 -15z"/>
<path d="M4 219 c-3 -5 6 -9 20 -9 31 0 34 6 6 13 -11 3 -23 1 -26 -4z"/>
<path d="M360 200 c0 -5 4 -10 9 -10 6 0 13 5 16 10 3 6 -1 10 -9 10 -9 0 -16
-4 -16 -10z"/>
</g>
</svg>
